<?xml version="1.0" encoding="UTF-8" standalone="no"?>
<!-- Created with Inkscape (http://www.inkscape.org/) -->

<svg
   xmlns:dc="http://purl.org/dc/elements/1.1/"
   xmlns:cc="http://creativecommons.org/ns#"
   xmlns:rdf="http://www.w3.org/1999/02/22-rdf-syntax-ns#"
   xmlns:svg="http://www.w3.org/2000/svg"
   xmlns="http://www.w3.org/2000/svg"
   version="1.1"
   width="620"
   height="600"
   id="fig"
   style="font-size:30px;font-style:normal;font-weight:normal;fill:none;stroke-width:1.5px;stroke-linecap:round;stroke-linejoin:round;stroke-opacity:1;stroke-dasharray:none;font-family:Bitstream Vera">
  <metadata
     id="metadata4364">
    <rdf:RDF>
      <cc:Work
         rdf:about="">
        <dc:format>image/svg+xml</dc:format>
        <dc:type
           rdf:resource="http://purl.org/dc/dcmitype/StillImage" />
        <dc:title></dc:title>
      </cc:Work>
    </rdf:RDF>
  </metadata>
  <defs
     id="defs4362" />
  <g
     id="g4750">
    <g
       id="g3766"
       style="fill:#d7ebc8;fill-opacity:0.5;stroke:#b9cdaa">
      <path
         d="m 320,482.9 95.4,-90.7 6,-169.5 L 320,300 z"
         id="polygon3768" />
      <path
         d="M 320,482.9 112.8,501.7 98,316.2 320,300 z"
         id="polygon3770" />
      <path
         d="M 320,482.9 201.3,595.7 191.9,397.7 320,300 z"
         id="polygon3772" />
      <path
         d="M 320,482.9 519.1,464.8 532.7,284.5 320,300 z"
         id="polygon3774" />
      <path
         d="m 222,14 c 0,56.333044 -99.39279,102 -222,102 -122.60721,0 -222,-45.666956 -222,-102 0,-56.333044 99.39279,-102 222,-102 122.60721,0 222,45.666956 222,102 z"
         transform="translate(320,300)"
         id="ellipse3776" />
      <path
         d="M 320,89.7 428.2,30.6 421.4,222.7 320,300 z"
         id="polygon3778" />
      <path
         d="M 320,89.7 81,102.2 98,316.2 320,300 z"
         id="polygon3780" />
      <path
         d="m 320,89.7 -139.1,76 11,232 L 320,300 z"
         id="polygon3782" />
      <path
         d="M 320,89.7 548.3,77.8 532.7,284.5 320,300 z"
         id="polygon3784" />
    </g>
    <path
       d="M 320,300 162.1,420.4"
       id="path3786"
       style="stroke:#000000" />
    <g
       id="g3788"
       style="fill:#000000;stroke:#000000">
      <path
         d="m 297.79999,317.70001 c 0,0.55229 -0.44772,1 -1,1 -0.55229,0 -1,-0.44771 -1,-1 0,-0.55228 0.44771,-1 1,-1 0.55228,0 1,0.44772 1,1 z"
         id="circle3790" />
      <path
         d="m 273.5,336.20001 c 0,0.55229 -0.44772,1 -1,1 -0.55228,0 -1,-0.44771 -1,-1 0,-0.55228 0.44772,-1 1,-1 0.55228,0 1,0.44772 1,1 z"
         id="circle3792" />
      <path
         d="m 248,355.70001 c 0,0.55229 -0.44772,1 -1,1 -0.55228,0 -1,-0.44771 -1,-1 0,-0.55228 0.44772,-1 1,-1 0.55228,0 1,0.44772 1,1 z"
         id="circle3794" />
      <path
         d="m 221.2,376.10001 c 0,0.55228 -0.44772,1 -1,1 -0.55229,0 -1,-0.44772 -1,-1 0,-0.55229 0.44771,-1 1,-1 0.55228,0 1,0.44771 1,1 z"
         id="circle3796" />
      <path
         d="m 192.89999,397.70001 c 0,0.55229 -0.44771,1 -1,1 -0.55228,0 -1,-0.44771 -1,-1 0,-0.55228 0.44772,-1 1,-1 0.55229,0 1,0.44772 1,1 z"
         id="circle3798" />
    </g>
    <path
       d="m 174.5,415.4 -4.4,-5.6 3.9,-3 4.4,5.7"
       id="path3800"
       style="fill:#000000;stroke:#000000" />
    <path
       d="m 162.1,420.4 8,-10.6 8.3,2.7"
       id="path3802"
       style="fill:#000000;stroke:#000000" />
    <path
       d="m 162.1,420.4 12.4,-5 -0.5,-8.6"
       id="path3804"
       style="fill:#000000;stroke:#000000" />
    <g
       id="text3806"
       style="text-anchor:end;stroke:#ffffff;stroke-width:3px">
      <path
         d="m 147.63712,421.52988 3.35449,0 4.05761,21.87011 -3.09082,0 -0.9082,-5.61035 -9.84375,0 -3.09082,5.61035 -3.12012,0 12.64161,-21.87011 m 1.06933,2.91504 -6.13769,10.88378 8.02734,0 -1.88965,-10.88378"
         id="path4734"
         style="font-style:italic" />
    </g>
    <g
       id="text3810"
       style="text-anchor:end;fill:#000000;stroke:none">
      <path
         d="m 147.63712,421.52988 3.35449,0 4.05761,21.87011 -3.09082,0 -0.9082,-5.61035 -9.84375,0 -3.09082,5.61035 -3.12012,0 12.64161,-21.87011 m 1.06933,2.91504 -6.13769,10.88378 8.02734,0 -1.88965,-10.88378"
         id="path4731"
         style="font-style:italic" />
    </g>
    <path
       d="M 320,300 320,43.8"
       id="path3814"
       style="stroke:#000000" />
    <g
       id="g3816"
       style="fill:#000000;stroke:#000000">
      <path
         d="m 321,260.29999 c 0,0.55228 -0.44772,1 -1,1 -0.55228,0 -1,-0.44772 -1,-1 0,-0.55229 0.44772,-1 1,-1 0.55228,0 1,0.44771 1,1 z"
         id="circle3818" />
      <path
         d="m 321,219.5 c 0,0.55228 -0.44772,1 -1,1 -0.55228,0 -1,-0.44772 -1,-1 0,-0.55228 0.44772,-1 1,-1 0.55228,0 1,0.44772 1,1 z"
         id="circle3820" />
      <path
         d="m 321,177.5 c 0,0.55228 -0.44772,1 -1,1 -0.55228,0 -1,-0.44772 -1,-1 0,-0.55228 0.44772,-1 1,-1 0.55228,0 1,0.44772 1,1 z"
         id="circle3822" />
      <path
         d="m 321,134.2 c 0,0.55228 -0.44772,1 -1,1 -0.55228,0 -1,-0.44772 -1,-1 0,-0.55229 0.44772,-1 1,-1 0.55228,0 1,0.44771 1,1 z"
         id="circle3824" />
      <path
         d="m 321,89.699997 c 0,0.552285 -0.44772,1 -1,1 -0.55228,0 -1,-0.447715 -1,-1 0,-0.552285 0.44772,-1 1,-1 0.55228,0 1,0.447715 1,1 z"
         id="circle3826" />
    </g>
    <path
       d="m 315.9,61.6 6.5,-0.5 1.7,2 -6.6,0.5"
       id="path3828"
       style="fill:#000000;stroke:#000000" />
    <path
       d="m 320,43.8 2.4,17.3 -4.9,2.5"
       id="path3830"
       style="fill:#000000;stroke:#000000" />
    <path
       d="m 320,43.8 -4.1,17.8 8.2,1.5"
       id="path3832"
       style="fill:#000000;stroke:#000000" />
    <g
       id="text3834"
       style="text-anchor:end;stroke:#ffffff;stroke-width:3px">
      <path
         d="m 303.33984,16.929882 2.97364,0 -3.75,19.40918 10.64941,0 -0.4834,2.460937 -13.62304,0 4.23339,-21.870117"
         id="path4723"
         style="font-style:italic" />
    </g>
    <g
       id="text3838"
       style="text-anchor:end;fill:#000000;stroke:none">
      <path
         d="m 303.33984,16.929882 2.97364,0 -3.75,19.40918 10.64941,0 -0.4834,2.460937 -13.62304,0 4.23339,-21.870117"
         id="path4720"
         style="font-style:italic" />
    </g>
    <g
       id="text3842"
       style="text-anchor:end;stroke:#ffffff;stroke-width:3px">
      <path
         d="m 305.06836,275.13672 c -1.62111,2e-5 -3.05177,0.39553 -4.29199,1.18652 -1.24025,0.78127 -2.31935,1.97756 -3.23731,3.58887 -0.58594,1.0254 -1.03516,2.11427 -1.34765,3.2666 -0.30274,1.15236 -0.45411,2.31446 -0.45411,3.48633 0,2.03126 0.4834,3.59864 1.4502,4.70215 0.97656,1.10352 2.35351,1.65527 4.13086,1.65527 1.60155,0 3.02733,-0.3955 4.27734,-1.18652 1.25975,-0.80078 2.33397,-1.9873 3.22266,-3.55957 0.59568,-1.05468 1.04979,-2.1582 1.3623,-3.31055 0.31248,-1.1621 0.46873,-2.31932 0.46875,-3.47168 -2e-5,-2.02147 -0.4883,-3.58397 -1.46484,-4.6875 -0.97658,-1.11326 -2.34865,-1.6699 -4.11621,-1.66992 m -3.83789,20.28808 c -2.68556,0 -4.79981,-0.79589 -6.34277,-2.38769 -1.53321,-1.59179 -2.29981,-3.76953 -2.29981,-6.5332 0,-1.58202 0.29785,-3.19823 0.89356,-4.84864 0.60546,-1.65037 1.43554,-3.1201 2.49023,-4.40918 1.24023,-1.51365 2.62206,-2.64158 4.14551,-3.38379 1.52342,-0.75193 3.20311,-1.1279 5.03906,-1.12793 2.67576,3e-5 4.78514,0.79104 6.32812,2.37305 1.54295,1.57229 2.31444,3.72072 2.31446,6.44531 -2e-5,1.6797 -0.29299,3.33009 -0.87891,4.95118 -0.58596,1.6211 -1.4258,3.09082 -2.51953,4.40918 -1.25002,1.52344 -2.63185,2.65625 -4.14551,3.39843 -1.50392,0.74219 -3.17872,1.11328 -5.02441,1.11328"
         id="path4717"
         style="font-style:italic" />
    </g>
    <g
       id="text3846"
       style="text-anchor:end;fill:#000000;stroke:none">
      <path
         d="m 305.06836,275.13672 c -1.62111,2e-5 -3.05177,0.39553 -4.29199,1.18652 -1.24025,0.78127 -2.31935,1.97756 -3.23731,3.58887 -0.58594,1.0254 -1.03516,2.11427 -1.34765,3.2666 -0.30274,1.15236 -0.45411,2.31446 -0.45411,3.48633 0,2.03126 0.4834,3.59864 1.4502,4.70215 0.97656,1.10352 2.35351,1.65527 4.13086,1.65527 1.60155,0 3.02733,-0.3955 4.27734,-1.18652 1.25975,-0.80078 2.33397,-1.9873 3.22266,-3.55957 0.59568,-1.05468 1.04979,-2.1582 1.3623,-3.31055 0.31248,-1.1621 0.46873,-2.31932 0.46875,-3.47168 -2e-5,-2.02147 -0.4883,-3.58397 -1.46484,-4.6875 -0.97658,-1.11326 -2.34865,-1.6699 -4.11621,-1.66992 m -3.83789,20.28808 c -2.68556,0 -4.79981,-0.79589 -6.34277,-2.38769 -1.53321,-1.59179 -2.29981,-3.76953 -2.29981,-6.5332 0,-1.58202 0.29785,-3.19823 0.89356,-4.84864 0.60546,-1.65037 1.43554,-3.1201 2.49023,-4.40918 1.24023,-1.51365 2.62206,-2.64158 4.14551,-3.38379 1.52342,-0.75193 3.20311,-1.1279 5.03906,-1.12793 2.67576,3e-5 4.78514,0.79104 6.32812,2.37305 1.54295,1.57229 2.31444,3.72072 2.31446,6.44531 -2e-5,1.6797 -0.29299,3.33009 -0.87891,4.95118 -0.58596,1.6211 -1.4258,3.09082 -2.51953,4.40918 -1.25002,1.52344 -2.63185,2.65625 -4.14551,3.39843 -1.50392,0.74219 -3.17872,1.11328 -5.02441,1.11328"
         id="path4714"
         style="font-style:italic" />
    </g>
    <path
       d="m 320,300 -99.8,76.1"
       id="path3850"
       style="stroke:#c80064" />
    <g
       id="text3852"
       style="text-anchor:start;stroke:#ffffff;stroke-width:3px">
      <path
         d="m 278.73965,346.52344 c 0.78125,-0.99608 1.99707,-1.93358 3.64747,-2.8125 0.64452,-0.34178 1.85545,-0.51268 3.63281,-0.5127 1.99217,2e-5 3.45701,0.79103 4.39453,2.37305 0.93748,1.58204 1.15721,3.66212 0.65918,6.24023 -0.50783,2.57813 -1.5381,4.65821 -3.09082,6.24024 -1.55275,1.58203 -3.32521,2.37304 -5.31738,2.37304 -1.20118,0 -2.18751,-0.23925 -2.95899,-0.71777 -0.77149,-0.46875 -1.34278,-1.1914 -1.71387,-2.16797 l -1.69921,8.70117 -2.70997,0 2.78321,-14.28222 c 0.43945,-2.25585 1.23046,-4.06737 2.37304,-5.43457 m 9.53614,5.28808 c 0.38084,-1.98241 0.27342,-3.54002 -0.32227,-4.67285 -0.59572,-1.12303 -1.60646,-1.68455 -3.03222,-1.68457 -1.4258,2e-5 -2.65626,0.56154 -3.69141,1.68457 -1.03516,1.13283 -1.74317,2.69044 -2.12402,4.67285 -0.39064,1.98243 -0.2881,3.54005 0.30761,4.67285 0.5957,1.12305 1.60644,1.68458 3.03223,1.68458 1.42577,0 2.65624,-0.56153 3.69141,-1.68458 1.03514,-1.1328 1.74803,-2.69042 2.13867,-4.67285"
         id="path4711"
         style="font-style:italic" />
    </g>
    <g
       id="text3856"
       style="text-anchor:start;fill:#000000;stroke:none">
      <path
         d="m 278.73965,346.52344 c 0.78125,-0.99608 1.99707,-1.93358 3.64747,-2.8125 0.64452,-0.34178 1.85545,-0.51268 3.63281,-0.5127 1.99217,2e-5 3.45701,0.79103 4.39453,2.37305 0.93748,1.58204 1.15721,3.66212 0.65918,6.24023 -0.50783,2.57813 -1.5381,4.65821 -3.09082,6.24024 -1.55275,1.58203 -3.32521,2.37304 -5.31738,2.37304 -1.20118,0 -2.18751,-0.23925 -2.95899,-0.71777 -0.77149,-0.46875 -1.34278,-1.1914 -1.71387,-2.16797 l -1.69921,8.70117 -2.70997,0 2.78321,-14.28222 c 0.43945,-2.25585 1.23046,-4.06737 2.37304,-5.43457 m 9.53614,5.28808 c 0.38084,-1.98241 0.27342,-3.54002 -0.32227,-4.67285 -0.59572,-1.12303 -1.60646,-1.68455 -3.03222,-1.68457 -1.4258,2e-5 -2.65626,0.56154 -3.69141,1.68457 -1.03516,1.13283 -1.74317,2.69044 -2.12402,4.67285 -0.39064,1.98243 -0.2881,3.54005 0.30761,4.67285 0.5957,1.12305 1.60644,1.68458 3.03223,1.68458 1.42577,0 2.65624,-0.56153 3.69141,-1.68458 1.03514,-1.1328 1.74803,-2.69042 2.13867,-4.67285"
         id="path4708"
         style="font-style:italic" />
    </g>
    <path
       d="M 320,300 490.9,287.6"
       id="path3860"
       style="stroke:#000000;stroke-dasharray:3, 4;stroke-dashoffset:9" />
    <path
       d="M 320,134.2 213.6,197.3"
       id="path3862"
       style="stroke:#000000;stroke-dasharray:3, 4;stroke-dashoffset:9" />
    <path
       d="M 320,134.2 500.8,124"
       id="path3864"
       style="stroke:#000000;stroke-dasharray:3, 4;stroke-dashoffset:9" />
    <g
       id="g3866"
       style="fill:#6400c8;fill-opacity:0.25;stroke:none">
      <path
         d="m 220.2,376.1 3.8,1.2 96,-77.3"
         id="path3868" />
      <path
         d="m 224,377.3 3.9,1.1 L 320,300"
         id="path3870" />
      <path
         d="m 227.9,378.4 3.9,1.1 L 320,300"
         id="path3872" />
      <path
         d="m 231.8,379.5 4,1 L 320,300"
         id="path3874" />
      <path
         d="m 235.8,380.5 4.1,1 L 320,300"
         id="path3876" />
      <path
         d="m 239.9,381.5 4.2,0.9 L 320,300"
         id="path3878" />
      <path
         d="m 244.1,382.4 4.2,0.9 L 320,300"
         id="path3880" />
      <path
         d="m 248.3,383.3 4.2,0.9 L 320,300"
         id="path3882" />
      <path
         d="m 252.5,384.2 4.3,0.7 L 320,300"
         id="path3884" />
      <path
         d="m 256.8,384.9 3.9,0.7 L 320,300"
         id="path3886" />
      <path
         d="m 260.7,385.6 4,0.6 L 320,300"
         id="path3888" />
      <path
         d="m 264.7,386.2 4,0.6 L 320,300"
         id="path3890" />
      <path
         d="m 268.7,386.8 4.1,0.6 L 320,300"
         id="path3892" />
      <path
         d="m 272.8,387.4 4.1,0.5 L 320,300"
         id="path3894" />
      <path
         d="m 276.9,387.9 4.1,0.4 39,-88.3"
         id="path3896" />
      <path
         d="m 281,388.3 4.1,0.4 L 320,300"
         id="path3898" />
      <path
         d="m 285.1,388.7 4.1,0.4 L 320,300"
         id="path3900" />
      <path
         d="m 289.2,389.1 4.2,0.3 L 320,300"
         id="path3902" />
      <path
         d="m 293.4,389.4 4.2,0.3 L 320,300"
         id="path3904" />
      <path
         d="m 297.6,389.7 4.2,0.2 L 320,300"
         id="path3906" />
      <path
         d="m 301.8,389.9 4.2,0.2 14,-90.1"
         id="path3908" />
      <path
         d="m 306,390.1 4.2,0.1 9.8,-90.2"
         id="path3910" />
      <path
         d="m 310.2,390.2 4.2,0.1 5.6,-90.3"
         id="path3912" />
      <path
         d="m 314.4,390.3 4.2,0 1.4,-90.3"
         id="path3914" />
      <path
         d="m 318.6,390.3 4.3,0 L 320,300"
         id="path3916" />
      <path
         d="m 322.9,390.3 4.2,0 L 320,300"
         id="path3918" />
      <path
         d="m 327.1,390.3 4.2,-0.1 L 320,300"
         id="path3920" />
      <path
         d="M 331.3,390.2 335.5,390 320,300"
         id="path3922" />
      <path
         d="m 335.5,390 4.2,-0.2 L 320,300"
         id="path3924" />
      <path
         d="m 339.7,389.8 4.2,-0.2 L 320,300"
         id="path3926" />
      <path
         d="m 343.9,389.6 4.2,-0.3 L 320,300"
         id="path3928" />
      <path
         d="M 348.1,389.3 352.3,389 320,300"
         id="path3930" />
      <path
         d="m 352.3,389 4.1,-0.4 L 320,300"
         id="path3932" />
      <path
         d="m 356.4,388.6 4.1,-0.4 L 320,300"
         id="path3934" />
      <path
         d="m 360.5,388.2 4.1,-0.5 L 320,300"
         id="path3936" />
      <path
         d="m 364.6,387.7 4.1,-0.5 L 320,300"
         id="path3938" />
      <path
         d="m 368.7,387.2 4,-0.6 L 320,300"
         id="path3940" />
      <path
         d="m 372.7,386.6 4,-0.6 -56.7,-86"
         id="path3942" />
      <path
         d="m 376.7,386 4,-0.6 L 320,300"
         id="path3944" />
      <path
         d="m 380.7,385.4 3.9,-0.7 L 320,300"
         id="path3946" />
      <path
         d="M 384.6,384.7 388.5,384 320,300"
         id="path3948" />
      <path
         d="m 388.5,384 3.8,-0.8 L 320,300"
         id="path3950" />
      <path
         d="m 392.3,383.2 3.8,-0.8 L 320,300"
         id="path3952" />
      <path
         d="m 396.1,382.4 3.8,-0.9 L 320,300"
         id="path3954" />
      <path
         d="m 399.9,381.5 3.7,-0.8 L 320,300"
         id="path3956" />
      <path
         d="m 403.6,380.7 3.7,-1 L 320,300"
         id="path3958" />
      <path
         d="m 407.3,379.7 3.6,-0.9 L 320,300"
         id="path3960" />
      <path
         d="m 410.9,378.8 3.5,-1 L 320,300"
         id="path3962" />
      <path
         d="m 414.4,377.8 3.5,-1.1 L 320,300"
         id="path3964" />
      <path
         d="m 417.9,376.7 3.8,-1.2 L 320,300"
         id="path3966" />
      <path
         d="m 421.7,375.5 3.8,-1.2 L 320,300"
         id="path3968" />
      <path
         d="M 425.5,374.3 429.1,373 320,300"
         id="path3970" />
      <path
         d="m 429.1,373 3.6,-1.3 L 320,300"
         id="path3972" />
      <path
         d="m 432.7,371.7 3.5,-1.4 L 320,300"
         id="path3974" />
      <path
         d="m 436.2,370.3 3.4,-1.4 L 320,300"
         id="path3976" />
      <path
         d="m 439.6,368.9 3.3,-1.4 L 320,300"
         id="path3978" />
      <path
         d="m 442.9,367.5 3.7,-1.7 L 320,300"
         id="path3980" />
      <path
         d="m 446.6,365.8 3.5,-1.7 L 320,300"
         id="path3982" />
      <path
         d="m 450.1,364.1 3.4,-1.7 L 320,300"
         id="path3984" />
      <path
         d="m 453.5,362.4 3.3,-1.8 L 320,300"
         id="path3986" />
      <path
         d="M 456.8,360.6 460,358.7 320,300"
         id="path3988" />
      <path
         d="m 460,358.7 3.4,-2.1 L 320,300"
         id="path3990" />
      <path
         d="m 463.4,356.6 3.2,-2.1 L 320,300"
         id="path3992" />
      <path
         d="m 466.6,354.5 3.1,-2.2 L 320,300"
         id="path3994" />
      <path
         d="m 469.7,352.3 2.9,-2.2 L 320,300"
         id="path3996" />
      <path
         d="m 472.6,350.1 3.1,-2.5 L 320,300"
         id="path3998" />
      <path
         d="M 475.7,347.6 478.6,345 320,300"
         id="path4000" />
      <path
         d="m 478.6,345 2.7,-2.6 L 320,300"
         id="path4002" />
      <path
         d="m 481.3,342.4 2.5,-2.6 L 320,300"
         id="path4004" />
      <path
         d="m 483.8,339.8 2.5,-3.1 L 320,300"
         id="path4006" />
      <path
         d="m 486.3,336.7 2.3,-3 L 320,300"
         id="path4008" />
      <path
         d="m 488.6,333.7 2,-3.1 L 320,300"
         id="path4010" />
      <path
         d="m 490.6,330.6 2,-3.5 L 320,300"
         id="path4012" />
      <path
         d="m 492.6,327.1 1.5,-3.6 L 320,300"
         id="path4014" />
      <path
         d="M 494.1,323.5 495.4,320 320,300"
         id="path4016" />
      <path
         d="m 495.4,320 0.9,-3.5 L 320,300"
         id="path4018" />
      <path
         d="m 496.3,316.5 0.6,-4 L 320,300"
         id="path4020" />
      <path
         d="M 496.9,312.5 497,308.6 320,300"
         id="path4022" />
      <path
         d="M 497,308.6 496.8,304.7 320,300"
         id="path4024" />
      <path
         d="M 496.8,304.7 496.2,300.8 320,300"
         id="path4026" />
      <path
         d="M 496.2,300.8 495.1,296.9 320,300"
         id="path4028" />
      <path
         d="M 495.1,296.9 493.7,293.1 320,300"
         id="path4030" />
      <path
         d="M 493.7,293.1 491.9,289.4 320,300"
         id="path4032" />
      <path
         d="m 491.9,289.4 -1,-1.8 L 320,300"
         id="path4034" />
    </g>
    <g
       id="g4036"
       style="fill:none;stroke:#c80064">
      <path
         d="m 220.2,376.1 3.8,1.2"
         id="path4038" />
      <path
         d="m 224,377.3 3.9,1.1"
         id="path4040" />
      <path
         d="m 227.9,378.4 3.9,1.1"
         id="path4042" />
      <path
         d="m 231.8,379.5 4,1"
         id="path4044" />
      <path
         d="m 235.8,380.5 4.1,1"
         id="path4046" />
      <path
         d="m 239.9,381.5 4.2,0.9"
         id="path4048" />
      <path
         d="m 244.1,382.4 4.2,0.9"
         id="path4050" />
      <path
         d="m 248.3,383.3 4.2,0.9"
         id="path4052" />
      <path
         d="m 252.5,384.2 4.3,0.7"
         id="path4054" />
      <path
         d="m 256.8,384.9 3.9,0.7"
         id="path4056" />
      <path
         d="m 260.7,385.6 4,0.6"
         id="path4058" />
      <path
         d="m 264.7,386.2 4,0.6"
         id="path4060" />
      <path
         d="m 268.7,386.8 4.1,0.6"
         id="path4062" />
      <path
         d="m 272.8,387.4 4.1,0.5"
         id="path4064" />
      <path
         d="m 276.9,387.9 4.1,0.4"
         id="path4066" />
      <path
         d="m 281,388.3 4.1,0.4"
         id="path4068" />
      <path
         d="m 285.1,388.7 4.1,0.4"
         id="path4070" />
      <path
         d="m 289.2,389.1 4.2,0.3"
         id="path4072" />
      <path
         d="m 293.4,389.4 4.2,0.3"
         id="path4074" />
      <path
         d="m 297.6,389.7 4.2,0.2"
         id="path4076" />
      <path
         d="m 301.8,389.9 4.2,0.2"
         id="path4078" />
      <path
         d="m 306,390.1 4.2,0.1"
         id="path4080" />
      <path
         d="m 310.2,390.2 4.2,0.1"
         id="path4082" />
      <path
         d="m 314.4,390.3 4.2,0"
         id="path4084" />
      <path
         d="m 318.6,390.3 4.3,0"
         id="path4086" />
      <path
         d="m 322.9,390.3 4.2,0"
         id="path4088" />
      <path
         d="m 327.1,390.3 4.2,-0.1"
         id="path4090" />
      <path
         d="m 331.3,390.2 4.2,-0.2"
         id="path4092" />
      <path
         d="m 335.5,390 4.2,-0.2"
         id="path4094" />
      <path
         d="m 339.7,389.8 4.2,-0.2"
         id="path4096" />
      <path
         d="m 343.9,389.6 4.2,-0.3"
         id="path4098" />
      <path
         d="m 348.1,389.3 4.2,-0.3"
         id="path4100" />
      <path
         d="m 352.3,389 4.1,-0.4"
         id="path4102" />
      <path
         d="m 356.4,388.6 4.1,-0.4"
         id="path4104" />
      <path
         d="m 360.5,388.2 4.1,-0.5"
         id="path4106" />
      <path
         d="m 364.6,387.7 4.1,-0.5"
         id="path4108" />
      <path
         d="m 368.7,387.2 4,-0.6"
         id="path4110" />
      <path
         d="m 372.7,386.6 4,-0.6"
         id="path4112" />
      <path
         d="m 376.7,386 4,-0.6"
         id="path4114" />
      <path
         d="m 380.7,385.4 3.9,-0.7"
         id="path4116" />
      <path
         d="m 384.6,384.7 3.9,-0.7"
         id="path4118" />
      <path
         d="m 388.5,384 3.8,-0.8"
         id="path4120" />
      <path
         d="m 392.3,383.2 3.8,-0.8"
         id="path4122" />
      <path
         d="m 396.1,382.4 3.8,-0.9"
         id="path4124" />
      <path
         d="m 399.9,381.5 3.7,-0.8"
         id="path4126" />
      <path
         d="m 403.6,380.7 3.7,-1"
         id="path4128" />
      <path
         d="m 407.3,379.7 3.6,-0.9"
         id="path4130" />
      <path
         d="m 410.9,378.8 3.5,-1"
         id="path4132" />
      <path
         d="m 414.4,377.8 3.5,-1.1"
         id="path4134" />
      <path
         d="m 417.9,376.7 3.8,-1.2"
         id="path4136" />
      <path
         d="m 421.7,375.5 3.8,-1.2"
         id="path4138" />
      <path
         d="m 425.5,374.3 3.6,-1.3"
         id="path4140" />
      <path
         d="m 429.1,373 3.6,-1.3"
         id="path4142" />
      <path
         d="m 432.7,371.7 3.5,-1.4"
         id="path4144" />
      <path
         d="m 436.2,370.3 3.4,-1.4"
         id="path4146" />
      <path
         d="m 439.6,368.9 3.3,-1.4"
         id="path4148" />
      <path
         d="m 442.9,367.5 3.7,-1.7"
         id="path4150" />
      <path
         d="m 446.6,365.8 3.5,-1.7"
         id="path4152" />
      <path
         d="m 450.1,364.1 3.4,-1.7"
         id="path4154" />
      <path
         d="m 453.5,362.4 3.3,-1.8"
         id="path4156" />
      <path
         d="m 456.8,360.6 3.2,-1.9"
         id="path4158" />
      <path
         d="m 460,358.7 3.4,-2.1"
         id="path4160" />
      <path
         d="m 463.4,356.6 3.2,-2.1"
         id="path4162" />
      <path
         d="m 466.6,354.5 3.1,-2.2"
         id="path4164" />
      <path
         d="m 469.7,352.3 2.9,-2.2"
         id="path4166" />
      <path
         d="m 472.6,350.1 3.1,-2.5"
         id="path4168" />
      <path
         d="m 475.7,347.6 2.9,-2.6"
         id="path4170" />
      <path
         d="m 478.6,345 2.7,-2.6"
         id="path4172" />
      <path
         d="m 481.3,342.4 2.5,-2.6"
         id="path4174" />
      <path
         d="m 483.8,339.8 2.5,-3.1"
         id="path4176" />
      <path
         d="m 486.3,336.7 2.3,-3"
         id="path4178" />
      <path
         d="m 488.6,333.7 2,-3.1"
         id="path4180" />
      <path
         d="m 490.6,330.6 2,-3.5"
         id="path4182" />
      <path
         d="m 492.6,327.1 1.5,-3.6"
         id="path4184" />
      <path
         d="m 494.1,323.5 1.3,-3.5"
         id="path4186" />
      <path
         d="m 495.4,320 0.9,-3.5"
         id="path4188" />
      <path
         d="m 496.3,316.5 0.6,-4"
         id="path4190" />
      <path
         d="m 496.9,312.5 0.1,-3.9"
         id="path4192" />
      <path
         d="m 497,308.6 -0.2,-3.9"
         id="path4194" />
      <path
         d="m 496.8,304.7 -0.6,-3.9"
         id="path4196" />
      <path
         d="m 496.2,300.8 -1.1,-3.9"
         id="path4198" />
      <path
         d="m 495.1,296.9 -1.4,-3.8"
         id="path4200" />
      <path
         d="m 493.7,293.1 -1.8,-3.7"
         id="path4202" />
      <path
         d="m 491.9,289.4 -1,-1.8"
         id="path4204" />
    </g>
    <g
       id="text4206"
       style="text-anchor:start;stroke:#ffffff;stroke-width:3px">
      <path
         d="m 446.31601,379.87637 c -0.63478,2e-5 -1.09376,0.70802 -1.37695,2.12403 l -1.94825,10.04882 c 0.91796,1e-5 1.94335,-0.50781 3.07618,-1.52343 1.02537,-0.9082 1.74314,-2.45117 2.15332,-4.62891 0.38084,-2.03124 0.26365,-3.59374 -0.35157,-4.6875 -0.50782,-0.88866 -1.0254,-1.33299 -1.55273,-1.33301 m 0.43945,-2.2998 c 1.40624,2e-5 2.58788,0.64455 3.54492,1.93359 1.02538,1.37697 1.27928,3.50587 0.76172,6.38672 -0.47853,2.64649 -1.55763,4.75586 -3.2373,6.32813 -1.58205,1.48437 -3.34962,2.22656 -5.30274,2.22656 l -1.14257,5.88867 -2.68067,0 1.14258,-5.87402 c -1.95313,0 -3.43262,-0.74707 -4.43848,-2.24121 -1.03515,-1.52344 -1.29394,-3.62793 -0.77636,-6.31348 0.5371,-2.79296 1.6162,-4.90233 3.2373,-6.32813 1.2207,-1.06443 2.65624,-1.73338 4.30664,-2.00683 l -0.46875,2.38769 c -0.6836,0.22463 -1.38184,0.71779 -2.09472,1.4795 -1.07423,1.12305 -1.78712,2.61231 -2.13868,4.46777 -0.3711,1.97266 -0.25391,3.52051 0.35157,4.64355 0.55663,1.00587 1.38671,1.5088 2.49023,1.50879 l 1.94824,-10.06347 c 0.57616,-2.94921 2.07519,-4.42381 4.49707,-4.42383"
         id="path4705"
         style="font-style:italic" />
    </g>
    <g
       id="text4210"
       style="text-anchor:start;fill:#000000;stroke:none">
      <path
         d="m 446.31601,379.87637 c -0.63478,2e-5 -1.09376,0.70802 -1.37695,2.12403 l -1.94825,10.04882 c 0.91796,1e-5 1.94335,-0.50781 3.07618,-1.52343 1.02537,-0.9082 1.74314,-2.45117 2.15332,-4.62891 0.38084,-2.03124 0.26365,-3.59374 -0.35157,-4.6875 -0.50782,-0.88866 -1.0254,-1.33299 -1.55273,-1.33301 m 0.43945,-2.2998 c 1.40624,2e-5 2.58788,0.64455 3.54492,1.93359 1.02538,1.37697 1.27928,3.50587 0.76172,6.38672 -0.47853,2.64649 -1.55763,4.75586 -3.2373,6.32813 -1.58205,1.48437 -3.34962,2.22656 -5.30274,2.22656 l -1.14257,5.88867 -2.68067,0 1.14258,-5.87402 c -1.95313,0 -3.43262,-0.74707 -4.43848,-2.24121 -1.03515,-1.52344 -1.29394,-3.62793 -0.77636,-6.31348 0.5371,-2.79296 1.6162,-4.90233 3.2373,-6.32813 1.2207,-1.06443 2.65624,-1.73338 4.30664,-2.00683 l -0.46875,2.38769 c -0.6836,0.22463 -1.38184,0.71779 -2.09472,1.4795 -1.07423,1.12305 -1.78712,2.61231 -2.13868,4.46777 -0.3711,1.97266 -0.25391,3.52051 0.35157,4.64355 0.55663,1.00587 1.38671,1.5088 2.49023,1.50879 l 1.94824,-10.06347 c 0.57616,-2.94921 2.07519,-4.42381 4.49707,-4.42383"
         id="path4702"
         style="font-style:italic" />
    </g>
    <g
       id="g4214"
       style="fill:none;stroke:#000000">
      <path
         d="m 215.6,197.7 3.9,0.9"
         id="path4216" />
      <path
         d="m 222.4,199.3 3.9,0.8"
         id="path4218" />
      <path
         d="m 229.2,200.7 4,0.8"
         id="path4220" />
      <path
         d="m 236.1,202 4,0.7"
         id="path4222" />
      <path
         d="m 243,203.2 4,0.6"
         id="path4224" />
      <path
         d="m 249.9,204.2 4,0.6"
         id="path4226" />
      <path
         d="m 256.9,205.2 4,0.5"
         id="path4228" />
      <path
         d="m 263.8,206 4,0.4"
         id="path4230" />
      <path
         d="m 270.8,206.7 4,0.4"
         id="path4232" />
      <path
         d="m 277.8,207.4 4,0.3"
         id="path4234" />
      <path
         d="m 284.8,207.9 3.9,0.2"
         id="path4236" />
      <path
         d="m 291.7,208.3 4,0.2"
         id="path4238" />
      <path
         d="m 298.7,208.6 4,0.2"
         id="path4240" />
      <path
         d="m 305.7,208.9 4,0.1"
         id="path4242" />
      <path
         d="m 312.7,209 4,0.1"
         id="path4244" />
      <path
         d="m 319.7,209.1 4,0"
         id="path4246" />
      <path
         d="m 326.7,209 4,0"
         id="path4248" />
      <path
         d="m 333.7,208.9 4,-0.1"
         id="path4250" />
      <path
         d="m 340.7,208.7 4,-0.2"
         id="path4252" />
      <path
         d="m 347.7,208.3 4,-0.2"
         id="path4254" />
      <path
         d="m 354.7,207.9 4,-0.3"
         id="path4256" />
      <path
         d="m 361.7,207.4 4,-0.3"
         id="path4258" />
      <path
         d="m 368.7,206.8 3.9,-0.4"
         id="path4260" />
      <path
         d="m 375.6,206.1 4,-0.5"
         id="path4262" />
      <path
         d="m 382.6,205.2 3.9,-0.5"
         id="path4264" />
      <path
         d="m 389.5,204.3 4,-0.6"
         id="path4266" />
      <path
         d="m 396.4,203.3 4,-0.7"
         id="path4268" />
      <path
         d="m 403.3,202.1 4,-0.7"
         id="path4270" />
      <path
         d="m 410.2,200.8 3.9,-0.8"
         id="path4272" />
      <path
         d="m 417.1,199.4 3.9,-0.9"
         id="path4274" />
      <path
         d="m 423.9,197.9 3.9,-1"
         id="path4276" />
      <path
         d="m 430.7,196.2 3.8,-1.1"
         id="path4278" />
      <path
         d="m 437.4,194.3 3.8,-1.1"
         id="path4280" />
      <path
         d="m 444.1,192.3 3.8,-1.2"
         id="path4282" />
      <path
         d="m 450.8,190.1 3.7,-1.3"
         id="path4284" />
      <path
         d="m 457.3,187.7 3.7,-1.5"
         id="path4286" />
      <path
         d="m 463.8,185.1 3.7,-1.6"
         id="path4288" />
      <path
         d="m 470.2,182.2 3.6,-1.8"
         id="path4290" />
      <path
         d="m 476.4,179 3.5,-1.9"
         id="path4292" />
      <path
         d="m 482.5,175.5 3.3,-2.1"
         id="path4294" />
      <path
         d="m 488.3,171.6 3.2,-2.4"
         id="path4296" />
      <path
         d="m 493.8,167.3 2.9,-2.7"
         id="path4298" />
      <path
         d="m 498.7,162.4 2.6,-3.1"
         id="path4300" />
      <path
         d="m 503,156.9 1.9,-3.5"
         id="path4302" />
      <path
         d="m 506.1,150.6 1.1,-3.8"
         id="path4304" />
      <path
         d="m 507.6,143.8 0,-4"
         id="path4306" />
      <path
         d="M 507.1,136.9 506,133"
         id="path4308" />
      <path
         d="m 504.8,130.3 -2,-3.5"
         id="path4310" />
      <path
         d="M 501.1,124.3 500.8,124"
         id="path4312" />
    </g>
    <path
       d="M 220.2,376.1 213.6,197.3"
       id="path4314"
       style="stroke:#000000;stroke-dasharray:3, 4;stroke-dashoffset:9" />
    <path
       d="M 490.9,287.6 500.8,124"
       id="path4316"
       style="stroke:#c80064" />
    <g
       id="text4318"
       style="text-anchor:start;stroke:#ffffff;stroke-width:3px">
      <path
         d="m 504.38632,207.69376 12.80274,0 -0.4834,2.46093 -12.34863,11.792 10.19531,0 -0.42481,2.15332 -13.31543,0 0.4834,-2.46094 12.34863,-11.79199 -9.68261,0 0.4248,-2.15332"
         id="path4699"
         style="font-style:italic" />
    </g>
    <g
       id="text4322"
       style="text-anchor:start;fill:#000000;stroke:none">
      <path
         d="m 504.38632,207.69376 12.80274,0 -0.4834,2.46093 -12.34863,11.792 10.19531,0 -0.42481,2.15332 -13.31543,0 0.4834,-2.46094 12.34863,-11.79199 -9.68261,0 0.4248,-2.15332"
         id="path4696"
         style="font-style:italic" />
    </g>
    <path
       d="m 505.48874,124 c 0,2.58953 -2.09922,4.68876 -4.68875,4.68876 -2.58953,0 -4.68876,-2.09923 -4.68876,-4.68876 0,-2.58953 2.09923,-4.68876 4.68876,-4.68876 2.58953,0 4.68875,2.09923 4.68875,4.68876 z"
       id="circle4326"
       style="fill:#000000;stroke:#000000" />
    <g
       id="text4328"
       style="text-anchor:start;stroke:#ffffff;stroke-width:3px">
      <path
         d="m 530.10175,110.23633 c -1.30861,2.24611 -2.28028,4.46779 -2.91504,6.66504 -0.63477,2.19728 -0.95216,4.42384 -0.95215,6.67968 -10e-6,2.25587 0.31738,4.4922 0.95215,6.70899 0.64452,2.20703 1.6162,4.42871 2.91504,6.66504 l -2.34375,0 c -1.46485,-2.29493 -2.56349,-4.55078 -3.2959,-6.76758 -0.72266,-2.21679 -1.08399,-4.41894 -1.08399,-6.60645 0,-2.17772 0.36133,-4.3701 1.08399,-6.57714 0.72265,-2.20702 1.82128,-4.46287 3.2959,-6.76758 l 2.34375,0"
         id="path4680" />
      <path
         d="m 538.15839,119.52344 c 0.78124,-0.99608 1.99706,-1.93358 3.64746,-2.8125 0.64452,-0.34178 1.85545,-0.51268 3.63281,-0.5127 1.99217,2e-5 3.45701,0.79103 4.39453,2.37305 0.93748,1.58204 1.15721,3.66212 0.65918,6.24023 -0.50783,2.57813 -1.5381,4.65821 -3.09082,6.24024 -1.55275,1.58203 -3.32521,2.37304 -5.31738,2.37304 -1.20118,0 -2.18751,-0.23925 -2.95899,-0.71777 -0.77149,-0.46875 -1.34278,-1.1914 -1.71386,-2.16797 l -1.69922,8.70117 -2.70996,0 2.7832,-14.28222 c 0.43945,-2.25585 1.23046,-4.06737 2.37305,-5.43457 m 9.53613,5.28808 c 0.38084,-1.98241 0.27342,-3.54002 -0.32227,-4.67285 -0.59571,-1.12303 -1.60646,-1.68455 -3.03222,-1.68457 -1.42579,2e-5 -2.65626,0.56154 -3.69141,1.68457 -1.03516,1.13283 -1.74317,2.69044 -2.12402,4.67285 -0.39063,1.98243 -0.28809,3.54005 0.30761,4.67285 0.5957,1.12305 1.60644,1.68458 3.03223,1.68458 1.42577,0 2.65624,-0.56153 3.69141,-1.68458 1.03514,-1.1328 1.74803,-2.69042 2.13867,-4.67285"
         id="path4682"
         style="font-style:italic" />
      <path
         d="m 555.07733,129.2793 3.09082,0 0,2.51953 -2.40234,4.6875 -1.88965,0 1.20117,-4.6875 0,-2.51953"
         id="path4684" />
      <path
         d="m 575.0285,118.77637 c -0.63478,1e-5 -1.09376,0.70802 -1.37695,2.12402 l -1.94824,10.04883 c 0.91796,0 1.94334,-0.50781 3.07617,-1.52344 1.02538,-0.9082 1.74315,-2.45116 2.15332,-4.6289 0.38084,-2.03124 0.26366,-3.59374 -0.35156,-4.6875 -0.50783,-0.88866 -1.02541,-1.333 -1.55274,-1.33301 m 0.43946,-2.29981 c 1.40623,2e-5 2.58787,0.64455 3.54492,1.9336 1.02537,1.37696 1.27928,3.50587 0.76172,6.38672 -0.47854,2.64648 -1.55764,4.75586 -3.23731,6.32812 -1.58204,1.48438 -3.34962,2.22656 -5.30273,2.22656 l -1.14258,5.88867 -2.68066,0 1.14257,-5.87402 c -1.95313,0 -3.43262,-0.74707 -4.43847,-2.24121 -1.03516,-1.52343 -1.29395,-3.62792 -0.77637,-6.31348 0.53711,-2.79295 1.61621,-4.90233 3.2373,-6.32812 1.2207,-1.06444 2.65625,-1.73338 4.30665,-2.00684 l -0.46875,2.3877 c -0.68361,0.22462 -1.38185,0.71778 -2.09473,1.47949 -1.07423,1.12306 -1.78712,2.61231 -2.13867,4.46777 -0.3711,1.97267 -0.25391,3.52052 0.35156,4.64356 0.55663,1.00586 1.38671,1.50879 2.49023,1.50879 l 1.94825,-10.06348 c 0.57616,-2.9492 2.07518,-4.42381 4.49707,-4.42383"
         id="path4686"
         style="font-style:italic" />
      <path
         d="m 584.4328,129.2793 3.09082,0 0,2.51953 -2.40234,4.6875 -1.88965,0 1.20117,-4.6875 0,-2.51953"
         id="path4688" />
      <path
         d="m 593.95428,116.59375 12.80274,0 -0.4834,2.46094 -12.34863,11.79199 10.19531,0 -0.4248,2.15332 -13.31543,0 0.48339,-2.46094 12.34864,-11.79199 -9.68262,0 0.4248,-2.15332"
         id="path4690"
         style="font-style:italic" />
      <path
         d="m 608.63202,110.23633 2.34375,0 c 1.46484,2.30471 2.55859,4.56056 3.28125,6.76758 0.73241,2.20704 1.09862,4.39942 1.09863,6.57714 -10e-6,2.18751 -0.36622,4.38966 -1.09863,6.60645 -0.72266,2.2168 -1.81641,4.47265 -3.28125,6.76758 l -2.34375,0 c 1.29882,-2.23633 2.26562,-4.45801 2.90039,-6.66504 0.64452,-2.21679 0.96679,-4.45312 0.9668,-6.70899 -10e-6,-2.25584 -0.32228,-4.4824 -0.9668,-6.67968 -0.63477,-2.19725 -1.60157,-4.41893 -2.90039,-6.66504"
         id="path4692" />
    </g>
    <g
       id="text4344"
       style="text-anchor:start;fill:#000000;stroke:none">
      <path
         d="m 530.10175,110.23633 c -1.30861,2.24611 -2.28028,4.46779 -2.91504,6.66504 -0.63477,2.19728 -0.95216,4.42384 -0.95215,6.67968 -10e-6,2.25587 0.31738,4.4922 0.95215,6.70899 0.64452,2.20703 1.6162,4.42871 2.91504,6.66504 l -2.34375,0 c -1.46485,-2.29493 -2.56349,-4.55078 -3.2959,-6.76758 -0.72266,-2.21679 -1.08399,-4.41894 -1.08399,-6.60645 0,-2.17772 0.36133,-4.3701 1.08399,-6.57714 0.72265,-2.20702 1.82128,-4.46287 3.2959,-6.76758 l 2.34375,0"
         id="path4665" />
      <path
         d="m 538.15839,119.52344 c 0.78124,-0.99608 1.99706,-1.93358 3.64746,-2.8125 0.64452,-0.34178 1.85545,-0.51268 3.63281,-0.5127 1.99217,2e-5 3.45701,0.79103 4.39453,2.37305 0.93748,1.58204 1.15721,3.66212 0.65918,6.24023 -0.50783,2.57813 -1.5381,4.65821 -3.09082,6.24024 -1.55275,1.58203 -3.32521,2.37304 -5.31738,2.37304 -1.20118,0 -2.18751,-0.23925 -2.95899,-0.71777 -0.77149,-0.46875 -1.34278,-1.1914 -1.71386,-2.16797 l -1.69922,8.70117 -2.70996,0 2.7832,-14.28222 c 0.43945,-2.25585 1.23046,-4.06737 2.37305,-5.43457 m 9.53613,5.28808 c 0.38084,-1.98241 0.27342,-3.54002 -0.32227,-4.67285 -0.59571,-1.12303 -1.60646,-1.68455 -3.03222,-1.68457 -1.42579,2e-5 -2.65626,0.56154 -3.69141,1.68457 -1.03516,1.13283 -1.74317,2.69044 -2.12402,4.67285 -0.39063,1.98243 -0.28809,3.54005 0.30761,4.67285 0.5957,1.12305 1.60644,1.68458 3.03223,1.68458 1.42577,0 2.65624,-0.56153 3.69141,-1.68458 1.03514,-1.1328 1.74803,-2.69042 2.13867,-4.67285"
         id="path4667"
         style="font-style:italic" />
      <path
         d="m 555.07733,129.2793 3.09082,0 0,2.51953 -2.40234,4.6875 -1.88965,0 1.20117,-4.6875 0,-2.51953"
         id="path4669" />
      <path
         d="m 575.0285,118.77637 c -0.63478,1e-5 -1.09376,0.70802 -1.37695,2.12402 l -1.94824,10.04883 c 0.91796,0 1.94334,-0.50781 3.07617,-1.52344 1.02538,-0.9082 1.74315,-2.45116 2.15332,-4.6289 0.38084,-2.03124 0.26366,-3.59374 -0.35156,-4.6875 -0.50783,-0.88866 -1.02541,-1.333 -1.55274,-1.33301 m 0.43946,-2.29981 c 1.40623,2e-5 2.58787,0.64455 3.54492,1.9336 1.02537,1.37696 1.27928,3.50587 0.76172,6.38672 -0.47854,2.64648 -1.55764,4.75586 -3.23731,6.32812 -1.58204,1.48438 -3.34962,2.22656 -5.30273,2.22656 l -1.14258,5.88867 -2.68066,0 1.14257,-5.87402 c -1.95313,0 -3.43262,-0.74707 -4.43847,-2.24121 -1.03516,-1.52343 -1.29395,-3.62792 -0.77637,-6.31348 0.53711,-2.79295 1.61621,-4.90233 3.2373,-6.32812 1.2207,-1.06444 2.65625,-1.73338 4.30665,-2.00684 l -0.46875,2.3877 c -0.68361,0.22462 -1.38185,0.71778 -2.09473,1.47949 -1.07423,1.12306 -1.78712,2.61231 -2.13867,4.46777 -0.3711,1.97267 -0.25391,3.52052 0.35156,4.64356 0.55663,1.00586 1.38671,1.50879 2.49023,1.50879 l 1.94825,-10.06348 c 0.57616,-2.9492 2.07518,-4.42381 4.49707,-4.42383"
         id="path4671"
         style="font-style:italic" />
      <path
         d="m 584.4328,129.2793 3.09082,0 0,2.51953 -2.40234,4.6875 -1.88965,0 1.20117,-4.6875 0,-2.51953"
         id="path4673" />
      <path
         d="m 593.95428,116.59375 12.80274,0 -0.4834,2.46094 -12.34863,11.79199 10.19531,0 -0.4248,2.15332 -13.31543,0 0.48339,-2.46094 12.34864,-11.79199 -9.68262,0 0.4248,-2.15332"
         id="path4675"
         style="font-style:italic" />
      <path
         d="m 608.63202,110.23633 2.34375,0 c 1.46484,2.30471 2.55859,4.56056 3.28125,6.76758 0.73241,2.20704 1.09862,4.39942 1.09863,6.57714 -10e-6,2.18751 -0.36622,4.38966 -1.09863,6.60645 -0.72266,2.2168 -1.81641,4.47265 -3.28125,6.76758 l -2.34375,0 c 1.29882,-2.23633 2.26562,-4.45801 2.90039,-6.66504 0.64452,-2.21679 0.96679,-4.45312 0.9668,-6.70899 -10e-6,-2.25584 -0.32228,-4.4824 -0.9668,-6.67968 -0.63477,-2.19725 -1.60157,-4.41893 -2.90039,-6.66504"
         id="path4677" />
    </g>
  </g>
</svg>
