<?xml version="1.0" encoding="UTF-8" standalone="no"?>
<!-- Generator: Adobe Illustrator 15.0.0, SVG Export Plug-In . SVG Version: 6.00 Build 0)  -->

<svg
   xmlns:dc="http://purl.org/dc/elements/1.1/"
   xmlns:cc="http://creativecommons.org/ns#"
   xmlns:rdf="http://www.w3.org/1999/02/22-rdf-syntax-ns#"
   xmlns:svg="http://www.w3.org/2000/svg"
   xmlns="http://www.w3.org/2000/svg"
   xmlns:xlink="http://www.w3.org/1999/xlink"
   xmlns:sodipodi="http://sodipodi.sourceforge.net/DTD/sodipodi-0.dtd"
   xmlns:inkscape="http://www.inkscape.org/namespaces/inkscape"
   version="1.1"
   x="0px"
   y="0px"
   width="817.60339"
   height="1020.9413"
   viewBox="0 0 817.60339 1020.9412"
   xml:space="preserve"
   id="svg2"
   inkscape:version="0.48.4 r9939"
   sodipodi:docname="Praezession.svg"><metadata
     id="metadata75"><rdf:RDF><cc:Work
         rdf:about=""><dc:format>image/svg+xml</dc:format><dc:type
           rdf:resource="http://purl.org/dc/dcmitype/StillImage" /></cc:Work></rdf:RDF></metadata><defs
     id="defs73"><linearGradient
       id="linearGradient3766"><stop
         style="stop-color:#ffffff;stop-opacity:1;"
         offset="0"
         id="stop3768" /><stop
         style="stop-color:#646464;stop-opacity:1;"
         offset="1"
         id="stop3770" /></linearGradient><radialGradient
       inkscape:collect="always"
       xlink:href="#linearGradient3766"
       id="radialGradient3772"
       cx=".25"
       cy=".45"
       fx=".3"
       fy=".4"
       r=".6"
       gradientUnits="objectBoundingBox" /></defs><sodipodi:namedview
     pagecolor="#ffffff"
     bordercolor="#666666"
     borderopacity="1"
     objecttolerance="10"
     gridtolerance="10"
     guidetolerance="10"
     inkscape:pageopacity="0"
     inkscape:pageshadow="2"
     inkscape:window-width="2560"
     inkscape:window-height="1385"
     id="namedview71"
     showgrid="false"
     inkscape:zoom="2.0373782"
     inkscape:cx="194.31428"
     inkscape:cy="779.88627"
     inkscape:window-x="-3"
     inkscape:window-y="-3"
     inkscape:window-maximized="1"
     inkscape:current-layer="g3903"
     fit-margin-top="10"
     fit-margin-left="10"
     fit-margin-right="10"
     fit-margin-bottom="10"><inkscape:grid
       type="xygrid"
       id="grid3002" /></sodipodi:namedview><circle
     id="circle15"
     r="129"
     cx="408.8"
     cy="879.6"
     style="fill:url(#radialGradient3772);stroke:#000000;stroke-width:5;fill-opacity:1" /><line
     id="line17"
     y2="206.98729"
     x2="21.249218"
     y1="789.11731"
     x1="356.8652"
     style="fill:#009245;stroke:#009245;stroke-width:3;stroke-miterlimit:10;fill-opacity:1;stroke-opacity:1" /><line
     id="line25"
     y2="742.58929"
     x2="408.55319"
     y1="181.58929"
     x1="408.55319"
     style="fill:none;stroke:#000000;stroke-width:3;stroke-linecap:round;stroke-miterlimit:10;stroke-dasharray:6, 6" /><path
     inkscape:connector-curvature="0"
     id="path29"
     d="m 662.28622,49.360289 c -7.484,-2.509 -30.911,1.615 -38.885,-0.636 -7.975,-2.25 -6.416,-12.548 -14.823,-14.524 -8.407,-1.977 -29.833,3.646 -38.613,1.957 -8.783,-1.69 -11.445,-11.95 -20.542,-13.342 -9.098,-1.392 -27.939,5.579 -37.29,4.496 -9.352,-1.084 -16.161,-11.027 -25.702,-11.795 -9.542,-0.769 -25.28,7.359 -34.947,6.911 -9.666,-0.447 -20.438,-9.803 -30.162,-9.926 -9.725,-0.124 -22.024,8.572 -31.652,9.139 -9.627,0.566 -24.157,-8.311 -33.799,-7.787 -9.642,0.524 -17.992,10.273 -27.495,11.117 -9.501,0.843 -27.216,-6.594 -36.513,-5.436 -9.297,1.158 -13.557,11.329 -22.585,12.792 -9.029,1.463 -29.533,-4.696 -38.232,-2.936 -8.699,1.76 -8.753,12.075 -17.062,14.118 -8.309,2.043 -31.045,-2.668 -38.907,-0.356 -7.863,2.313 -3.709,12.492 -11.072,15.06 -7.362,2.567 -31.709,-0.57 -38.521,2.234 -6.811,2.804 1.434,12.568 -4.78,15.589 -6.215,3.021 -31.509002,1.545 -37.085002,4.763 -5.576,3.218 6.541,12.302 1.642,15.694 -4.898,3.393 -30.45,3.617001 -34.638,7.161001 -4.188,3.545 11.469,11.7 8.021,15.372 -3.448,3.673 -28.561,5.591 -31.246,9.365 -2.685,3.774 16.082,10.777 14.179,14.629 -1.903,3.851 -25.891,7.412 -27,11.313 -1.109,3.901 20.258,9.562 19.951,13.487 -0.308,3.925 -22.517,9.031 -22.02,12.953 0.497,3.922 23.88,8.086 25.178,11.978 1.298,3.892 -18.525,10.403 -16.436,14.239 2.09,3.835 26.852,6.389 29.719,10.142 2.866,3.753 -14.031,11.492 -10.406,15.137 3.624,3.644 29.092,4.518 33.45,8.029 4.358,3.511 -9.154,12.268 -4.092,15.622 5.062,3.354 30.537002,2.523 36.267002,5.697 5.731,3.174 -4.026,12.709 2.334,15.681 6.361,2.971 31.15,0.46 38.096,3.21 6.947,2.75 1.21,12.803 8.697,15.312 7.484,2.509 30.912,-1.615 38.885,0.636 7.972,2.25 6.416,12.547 14.821,14.524 8.407,1.977 29.832,-3.647 38.615,-1.957 8.782,1.69 11.443,11.95 20.542,13.342 9.097,1.392 27.938,-5.579 37.29,-4.496 9.351,1.083 16.161,11.027 25.703,11.795 9.541,0.769 25.282,-7.358 34.948,-6.911 9.666,0.448 20.446,10.135 30.162,9.927 9.716,-0.208 21.936,-8.938 31.652,-9.139 9.717,-0.201 24.157,8.311 33.798,7.787 9.641,-0.524 17.991,-10.273 27.495,-11.117 9.501,-0.843 27.218,6.593 36.514,5.436 9.296,-1.158 13.556,-11.329 22.585,-12.792 9.028,-1.463 29.535,4.695 38.232,2.936 8.697,-1.76 8.752,-12.075 17.063,-14.118 8.307,-2.043 31.043,2.668 38.906,0.356 7.863,-2.313 3.707,-12.492 11.071,-15.06 7.364,-2.568 31.71,0.57 38.523,-2.234 6.811,-2.804 -1.438,-12.568 4.777,-15.589 6.216,-3.021 31.51,-1.544 37.087,-4.763 5.574,-3.218 -6.54,-12.302 -1.641,-15.694 4.898,-3.393 30.449,-3.617 34.637,-7.162 4.187,-3.544 -11.469,-11.699 -8.021,-15.372 3.446,-3.672 28.561,-5.59 31.246,-9.365 2.686,-3.775 -16.083,-10.778 -14.18,-14.629 1.903,-3.851 25.892,-7.412 27.001,-11.313 1.108,-3.901 -20.259,-9.562 -19.951,-13.487 0.308,-3.926 22.516,-9.031 22.02,-12.953 -0.496,-3.922 -23.88,-8.085 -25.178,-11.978 -1.298,-3.892 18.525,-10.403 16.436,-14.239 -2.089,-3.836 -26.853,-6.389 -29.72,-10.142 -2.868,-3.753 14.031,-11.492 10.406,-15.137 -3.624,-3.644 -29.093,-4.518 -33.449,-8.029 -4.357,-3.511 9.153,-12.268001 4.092,-15.622001 -5.062,-3.354 -30.537,-2.524 -36.268,-5.697"
     style="fill:none;stroke:#ff0000;stroke-width:5;stroke-miterlimit:10;stroke-opacity:1" /><g
     id="g3867"
     transform="matrix(-0.5,0.87,0.87,0.5,-90,233)"><path
       style="fill:none;stroke:#009245;stroke-width:5;stroke-miterlimit:10;stroke-opacity:1"
       d="m 179.088,590.785 c -7.458,7.354 -11.009,14.057 -8.785,18.174 4.201,7.773 27.399,3.383 51.816,-9.809 24.417,-13.192 40.806,-30.188 36.605,-37.962 -3.139,-5.811 -16.89,-4.824 -33.829,1.551"
       id="path35"
       inkscape:connector-curvature="0" /><polygon
       id="polygon39"
       points="167.879,588.519 176.9,592.97 179.958,602.552 190.552,581.219 "
       style="fill:#009245;fill-opacity:1" /></g><g
     id="g3903"
     transform="matrix(-0.6,0.5,0.5,0.6,230,-80)"
     style="fill:#0071bc;fill-opacity:1;stroke:#0071bc;stroke-opacity:1"><path
       style="fill:none;stroke:#0071bc;stroke-width:6;stroke-miterlimit:10;stroke-opacity:1"
       d="M 126.06,148.627 C 168.6636,121.34143 241.78681,96.340557 282.635,103.123"
       id="path45"
       inkscape:connector-curvature="0"
       sodipodi:nodetypes="cc" /><polygon
       id="polygon49"
       points="102.471,166.923 148.711,155.473 131.325,145.353 126.539,125.813 "
       style="fill:#0071bc;fill-opacity:1;stroke:#0071bc;stroke-opacity:1" /></g><g
     transform="matrix(.8,.34,-.3,.64,720,-275)"><path
       style="fill:none;stroke:#f00;stroke-width:7;stroke-miterlimit:10;stroke-opacity:1"
       d="m 179.088,590.785 c -7.458,7.354 -11.009,14.057 -8.785,18.174 4.201,7.773 27.399,3.383 51.816,-9.809 24.417,-13.192 40.806,-30.188 36.605,-37.962 -3.139,-5.811 -16.89,-4.824 -33.829,1.551"
       inkscape:connector-curvature="0" /><polygon
       points="169,582 178,590 183,602 203,574 "
       style="fill:#f00;fill-opacity:1" /></g><text
     id="text65"
     style="font-size:60px;font-style:oblique;font-variant:normal;font-weight:bold;font-stretch:normal;text-align:start;line-height:125%;writing-mode:lr-tb;text-anchor:start;fill:#0071bc;font-family:Sans;-inkscape-font-specification:Sans Bold Oblique"
     x="175"
     y="145"
     sodipodi:linespacing="125%">P</text>
<text
     id="text67"
     style="font-size:60px;font-style:oblique;font-variant:normal;font-weight:bold;font-stretch:normal;text-align:start;line-height:125%;writing-mode:lr-tb;text-anchor:start;fill:#ff0000;font-family:Sans;-inkscape-font-specification:Sans Bold Oblique"
     x="610"
     y="190"
     sodipodi:linespacing="125%">N</text>
<text
     id="text69"
     style="font-size:60px;font-style:oblique;font-variant:normal;font-weight:bold;font-stretch:normal;text-align:start;line-height:125%;writing-mode:lr-tb;text-anchor:start;fill:#009245;font-family:Sans;-inkscape-font-specification:Sans Bold Oblique"
     x="220"
     y="700"
     sodipodi:linespacing="125%">R</text>
<path
     sodipodi:type="arc"
     style="fill:none;stroke:#0071bc;stroke-opacity:1;stroke-width:3"
     id="path3004"
     sodipodi:cx="405"
     sodipodi:cy="175.94128"
     sodipodi:rx="385"
     sodipodi:ry="155"
     d="m 790,175.94128 a 385,155 0 1 1 -770,0 385,155 0 1 1 770,0 z"
     transform="translate(2.5,-2.5000399)" /></svg>