<?xml version="1.0" encoding="UTF-8" standalone="no"?>
<!-- Created with Serif DrawPlus 11, 0, 3, 23 (Feb 25, 14:12:55) (http://www.serif.com) -->
<svg version="1.1" xmlns="http://www.w3.org/2000/svg" xmlns:xlink="http://www.w3.org/1999/xlink" width="374.845" height="366.896">
	<g id="dp_group001" transform="matrix(1,0,0,1,-125.284,-555.243)">
		<g id="dp_group002">
			<g id="dp_group003">
				<path id="dp_path004" fill="black" d="M 475.444,607.688 L 470.5,619.572 L 457.709,615.503 L 462.653,603.619 L 475.444,607.688 L 476.337,607.275 L 462.275,602.8 L 456.816,615.916 L 470.879,620.391 L 476.337,607.275 Z "/>
			</g>
		</g>
		<g id="dp_group005">
			<g id="dp_group006">
				<path id="dp_path007" fill="black" fill-rule="evenodd" d="M 311.011,721.096 L 312.245,721.6 L 314.713,722.608 L 314.149,715.176 L 308.541,720.087 Z "/>
				<path id="dp_path008" fill="black" d="M 274.568,813.796 L 312.245,721.6 L 311.011,721.096 L 273.333,813.292 Z "/>
			</g>
		</g>
		<path id="dp_path009" fill="none" fill-rule="evenodd" stroke="black" stroke-width="0.666667" d="M 265.157,705.747 C 203.859,701.609 148.796,725.677 131.177,768.793 C 108.935,823.228 154.793,887.396 233.605,912.123 C 312.417,936.848 394.34,912.764 416.584,858.333 C 438.827,803.901 392.968,739.731 314.156,715.004 C 297.771,709.863 281.252,706.832 265.157,705.747"/>
		<path id="dp_path010" fill="none" fill-rule="evenodd" stroke="black" stroke-width="1" d="M 404.121,706.732 L 422.405,590.081"/>
		<g id="dp_group011">
			<g id="dp_group012">
				<path id="dp_path013" fill="black" fill-rule="evenodd" d="M 406.124,690.717 L 407.112,690.872 L 409.088,691.181 L 407.393,685.855 L 404.148,690.408 Z "/>
				<path id="dp_path014" fill="black" d="M 395.44,765.347 L 407.112,690.872 L 406.125,690.717 L 394.453,765.192 Z "/>
			</g>
		</g>
		<g id="dp_group015">
			<path id="dp_path016" fill="#2a04e8" fill-rule="evenodd" fill-opacity="0.501961" d="M 274.041,813.769 L 280.828,770.828 L 298.747,726.535 L 291.96,769.475"/>
			<g id="dp_group017">
				<g id="dp_group018">
					<path id="dp_path019" fill="black" fill-rule="evenodd" d="M 293.347,764.969 L 292.029,764.761 L 289.604,763.028 L 291.96,769.475 L 296.189,764.069 Z "/>
					<path id="dp_path020" fill="black" d="M 274.7,813.873 L 281.473,771.007 L 297.179,732.189 L 292.029,764.761 L 293.347,764.969 L 299.405,726.639 L 298.128,726.284 L 280.183,770.649 L 273.383,813.665 Z "/>
				</g>
			</g>
		</g>
		<path id="dp_path021" fill="#e86d08" fill-rule="evenodd" fill-opacity="0.501961" stroke="none" stroke-width="0.666667" d="M 273.881,813.552 L 416.584,858.333 C 429.236,827.372 419.855,793.261 394.907,765.048 Z "/>
		<g id="dp_group022">
			<g id="dp_group023">
				<path id="dp_path024" fill="black" fill-rule="evenodd" d="M 410.42,855.864 L 410.02,857.136 L 409.219,859.679 L 416.579,858.503 L 411.221,853.32 Z "/>
				<path id="dp_path025" fill="black" d="M 273.751,814.18 L 410.02,857.136 L 410.42,855.864 L 274.151,812.908 Z "/>
			</g>
		</g>
		<path id="dp_path026" fill="none" fill-rule="evenodd" stroke="black" stroke-width="0.666667" d="M 273.951,813.544 L 233.6,912.293"/>
		<path id="dp_path027" fill="none" fill-rule="evenodd" stroke="black" stroke-width="0.666667" stroke-dasharray="3.2,1.6,3.2,1.6" d="M 395.007,765.339 L 304.809,737.041"/>
		<path id="dp_path028" fill="none" fill-rule="evenodd" stroke="black" stroke-width="1" d="M 429.58,775.408 L 444.039,683.319"/>
		<g id="dp_group029">
			<g id="dp_group030">
				<path id="dp_path031" fill="black" fill-rule="evenodd" d="M 429.787,771.005 L 430.775,771.16 L 432.751,771.469 L 431.056,766.143 L 427.811,770.696 Z "/>
				<path id="dp_path032" fill="black" d="M 417.073,858.584 L 430.775,771.16 L 429.788,771.005 L 416.087,858.429 Z "/>
			</g>
		</g>
		<g id="dp_group033">
			<text id="dp_text001" transform="matrix(0.996545,8.71288e-016,-8.81231e-016,1,434.232,775.65)" xml:space="preserve" fill="black" font-family="Arial" font-size="13" font-weight="700" x="0" y="0">v </text>
			<path id="dp_path035" fill="none" fill-rule="evenodd" stroke="black" stroke-width="0.666667" d="M 441.712,773.6 L 441.712,778.792"/>
			<path id="dp_path036" fill="none" fill-rule="evenodd" stroke="black" stroke-width="0.666667" d="M 440.055,773.599 L 440.055,778.791"/>
		</g>
		<g id="dp_group037">
			<g id="dp_group038">
				<path id="dp_path039" fill="black" fill-rule="evenodd" d="M 447.199,637.845 L 447.845,637.683 L 449.139,637.359 L 446.711,634.531 L 445.905,638.171 Z "/>
				<path id="dp_path040" fill="black" d="M 444.419,684.873 L 444.727,684.107 L 445.027,683.336 L 445.319,682.567 L 445.601,681.793 L 445.875,681.02 L 446.139,680.247 L 446.393,679.472 L 446.641,678.695 L 446.88,677.916 L 447.109,677.139 L 447.328,676.359 L 447.541,675.579 L 447.744,674.796 L 447.937,674.015 L 448.124,673.231 L 448.301,672.447 L 448.469,671.663 L 448.629,670.876 L 448.78,670.089 L 448.923,669.303 L 449.056,668.515 L 449.183,667.725 L 449.299,666.937 L 449.407,666.148 L 449.508,665.359 L 449.599,664.567 L 449.681,663.776 L 449.757,662.985 L 449.824,662.192 L 449.881,661.399 L 449.931,660.607 L 449.972,659.813 L 450.004,659.021 L 450.029,658.227 L 450.045,657.432 L 450.055,656.639 L 450.055,655.845 L 450.045,655.052 L 450.029,654.256 L 450.004,653.461 L 449.972,652.667 L 449.932,651.872 L 449.883,651.077 L 449.827,650.283 L 449.761,649.488 L 449.688,648.693 L 449.607,647.899 L 449.519,647.105 L 449.423,646.311 L 449.317,645.516 L 449.204,644.723 L 449.084,643.931 L 448.956,643.137 L 448.82,642.344 L 448.675,641.552 L 448.524,640.76 L 448.364,639.968 L 448.197,639.177 L 448.021,638.384 L 447.845,637.683 L 447.2,637.845 L 447.373,638.536 L 447.547,639.316 L 447.713,640.101 L 447.871,640.888 L 448.021,641.672 L 448.164,642.459 L 448.3,643.244 L 448.425,644.032 L 448.545,644.819 L 448.659,645.607 L 448.761,646.393 L 448.857,647.18 L 448.945,647.968 L 449.027,648.757 L 449.097,649.544 L 449.163,650.333 L 449.219,651.12 L 449.268,651.909 L 449.308,652.696 L 449.34,653.485 L 449.365,654.272 L 449.381,655.06 L 449.388,655.848 L 449.388,656.636 L 449.381,657.424 L 449.365,658.211 L 449.34,658.997 L 449.308,659.784 L 449.267,660.569 L 449.217,661.356 L 449.16,662.141 L 449.093,662.927 L 449.02,663.712 L 448.937,664.495 L 448.847,665.279 L 448.748,666.063 L 448.64,666.844 L 448.524,667.627 L 448.4,668.408 L 448.267,669.188 L 448.127,669.969 L 447.976,670.748 L 447.819,671.527 L 447.651,672.305 L 447.476,673.081 L 447.292,673.857 L 447.099,674.633 L 446.899,675.408 L 446.688,676.183 L 446.469,676.955 L 446.243,677.727 L 446.007,678.497 L 445.761,679.267 L 445.507,680.036 L 445.245,680.804 L 444.975,681.569 L 444.695,682.335 L 444.405,683.099 L 444.108,683.861 L 443.8,684.625 Z "/>
			</g>
		</g>
		<path id="dp_path041" fill="none" fill-rule="evenodd" stroke="black" stroke-width="0.666667" d="M 446.711,634.531 C 442.513,619.316 434.044,604.471 422.013,590.991"/>
		<g id="dp_group042">
			<g id="dp_group043">
				<path id="dp_path044" fill="black" d="M 418.593,843.123 L 416.308,858.084 L 402.828,854.36 L 405.113,839.399 L 418.593,843.123 L 419.34,842.64 L 404.569,838.559 L 402.081,854.843 L 416.852,858.924 L 419.34,842.64 Z "/>
			</g>
		</g>
		<g id="dp_group045">
			<g id="dp_group046">
				<path id="dp_path047" fill="black" d="M 396.78,751.06 L 394.645,765.032 L 382.243,769.84 L 384.376,755.867 L 396.78,751.06 L 397.612,750.023 L 383.776,755.387 L 381.411,770.877 L 395.245,765.512 L 397.612,750.023 Z "/>
			</g>
		</g>
		<g id="dp_group048">
			<g id="dp_group049">
				<path id="dp_path050" fill="black" d="M 306.561,796.615 L 297.135,820.18 L 274.133,813.849 L 283.559,790.284 L 306.561,796.615 L 307.455,796.172 L 283.161,789.484 L 273.24,814.292 L 297.532,820.98 L 307.455,796.172 Z "/>
			</g>
		</g>
		<g id="dp_group051">
			<g id="dp_group052">
				<path id="dp_path053" fill="#cb0707" fill-rule="evenodd" d="M 387.983,767.204 L 388.479,768.443 L 389.468,770.919 L 394.42,765.348 L 386.992,764.728 Z "/>
				<path id="dp_path054" fill="#cb0707" d="M 274.199,814.163 L 388.479,768.443 L 387.983,767.205 L 273.703,812.925 Z "/>
			</g>
		</g>
		<g id="dp_group055">
			<g id="dp_group056">
				<path id="dp_path057" fill="black" fill-rule="evenodd" d="M 137.339,771.589 L 137.736,770.316 L 138.531,767.771 L 131.173,768.965 L 136.544,774.135 Z "/>
				<path id="dp_path058" fill="black" d="M 274.149,812.908 L 137.736,770.316 L 137.339,771.588 L 273.752,814.18 Z "/>
			</g>
		</g>
		<g id="dp_group059">
			<g id="dp_group060">
				<text id="dp_text002" transform="matrix(1,4.52982e-015,-4.6132e-015,1,162.526,584.552)" xml:space="preserve" fill="black" font-family="Arial" font-size="13" font-weight="700" x="0" y="0">v </text>
				<path id="dp_path062" fill="none" fill-rule="evenodd" stroke="black" stroke-width="0.666667" d="M 169.104,583.032 L 169.104,588.216"/>
				<path id="dp_path063" fill="none" fill-rule="evenodd" stroke="black" stroke-width="0.666667" d="M 170.801,583.032 L 170.801,588.216"/>
			</g>
			<text id="dp_text003" transform="matrix(1,4.52982e-015,-4.6132e-015,1,173.979,584.787)" xml:space="preserve" fill="black" font-family="Arial" font-size="13" font-weight="400" x="0" y="0">= </text>
			<text id="dp_text004" transform="matrix(1,4.52982e-015,-4.6132e-015,1,173.979,584.787)" xml:space="preserve" fill="black" font-family="Arial" font-size="13" font-weight="700" x="11.0933" y="0">k</text>
			<text id="dp_text005" transform="matrix(1,4.52982e-015,-4.6132e-015,1,173.979,584.787)" xml:space="preserve" fill="black" font-family="Arial" font-size="13" font-weight="400" x="18.2707" y="0">(</text>
			<text id="dp_text006" transform="matrix(1,4.52982e-015,-4.6132e-015,1,173.979,584.787)" xml:space="preserve" fill="black" font-family="Arial" font-size="13" font-weight="700" x="22.564" y="0">k</text>
			<text id="dp_text007" transform="matrix(1,4.52982e-015,-4.6132e-015,1,173.979,584.787)" xml:space="preserve" fill="black" font-family="Times New Roman" font-size="13" font-weight="400" x="29.7413" y="0">∙</text>
			<text id="dp_text008" transform="matrix(1,4.52982e-015,-4.6132e-015,1,173.979,584.787)" xml:space="preserve" fill="black" font-family="Arial" font-size="13" font-weight="700" x="32.9693" y="0">v</text>
			<text id="dp_text009" transform="matrix(1,4.52982e-015,-4.6132e-015,1,173.979,584.787)" xml:space="preserve" fill="black" font-family="Arial" font-size="13" font-weight="400" x="40.148" y="0">)</text>
			<text id="dp_text010" transform="matrix(1,4.52982e-015,-4.6132e-015,1,173.979,584.787)" xml:space="preserve" fill="black" font-family="Arial" font-size="13" font-weight="700" x="44.4413" y="0"> </text>
		</g>
		<g id="dp_group072">
			<g id="dp_group073">
				<text id="dp_text011" transform="matrix(1,3.72492e-015,-3.80828e-015,1,163.044,600.988)" xml:space="preserve" fill="black" font-family="Arial" font-size="13" font-weight="700" x="0" y="0">v </text>
				<path id="dp_path075" fill="none" fill-rule="evenodd" stroke="black" stroke-width="0.666667" d="M 169.621,599.468 L 169.621,604.651"/>
				<path id="dp_path076" fill="none" fill-rule="evenodd" stroke="black" stroke-width="0.666667" d="M 167.031,604.651 L 172.215,604.651"/>
			</g>
			<text id="dp_text012" transform="matrix(1,3.72492e-015,-3.80828e-015,1,173.979,600.86)" xml:space="preserve" fill="black" font-family="Arial" font-size="13" font-weight="400" x="0" y="0">= </text>
			<text id="dp_text013" transform="matrix(1,3.72492e-015,-3.80828e-015,1,173.979,600.86)" xml:space="preserve" fill="black" font-family="Arial" font-size="13" font-weight="400" x="11.0933" y="0">−</text>
			<text id="dp_text014" transform="matrix(1,3.72492e-015,-3.80828e-015,1,173.979,600.86)" xml:space="preserve" fill="black" font-family="Arial" font-size="13" font-weight="400" x="18.6147" y="0"> </text>
			<text id="dp_text015" transform="matrix(1,3.72492e-015,-3.80828e-015,1,173.979,600.86)" xml:space="preserve" fill="black" font-family="Arial" font-size="13" font-weight="700" x="22.1867" y="0">k</text>
			<text id="dp_text016" transform="matrix(1,3.72492e-015,-3.80828e-015,1,173.979,600.86)" xml:space="preserve" fill="black" font-family="Arial" font-size="13" font-weight="400" x="29.364" y="0">×(</text>
			<text id="dp_text017" transform="matrix(1,3.72492e-015,-3.80828e-015,1,173.979,600.86)" xml:space="preserve" fill="black" font-family="Arial" font-size="13" font-weight="700" x="41.1787" y="0">k</text>
			<text id="dp_text018" transform="matrix(1,3.72492e-015,-3.80828e-015,1,173.979,600.86)" xml:space="preserve" fill="black" font-family="Arial" font-size="13" font-weight="400" x="48.356" y="0">×</text>
			<text id="dp_text019" transform="matrix(1,3.72492e-015,-3.80828e-015,1,173.979,600.86)" xml:space="preserve" fill="black" font-family="Arial" font-size="13" font-weight="700" x="55.8773" y="0">v</text>
			<text id="dp_text020" transform="matrix(1,3.72492e-015,-3.80828e-015,1,173.979,600.86)" xml:space="preserve" fill="black" font-family="Arial" font-size="13" font-weight="400" x="63.056" y="0">) = </text>
			<text id="dp_text021" transform="matrix(1,3.72492e-015,-3.80828e-015,1,173.979,600.86)" xml:space="preserve" fill="black" font-family="Arial" font-size="13" font-weight="700" x="82.0147" y="0">v </text>
			<text id="dp_text022" transform="matrix(1,3.72492e-015,-3.80828e-015,1,173.979,600.86)" xml:space="preserve" fill="black" font-family="Arial" font-size="13" font-weight="400" x="92.7653" y="0">−</text>
			<text id="dp_text023" transform="matrix(1,3.72492e-015,-3.80828e-015,1,173.979,600.86)" xml:space="preserve" fill="black" font-family="Arial" font-size="13" font-weight="400" x="100.287" y="0"> </text>
			<text id="dp_text024" transform="matrix(1,3.72492e-015,-3.80828e-015,1,173.979,600.86)" xml:space="preserve" fill="black" font-family="Arial" font-size="13" font-weight="700" x="103.859" y="0">k</text>
			<text id="dp_text025" transform="matrix(1,3.72492e-015,-3.80828e-015,1,173.979,600.86)" xml:space="preserve" fill="black" font-family="Arial" font-size="13" font-weight="400" x="111.036" y="0">(</text>
			<text id="dp_text026" transform="matrix(1,3.72492e-015,-3.80828e-015,1,173.979,600.86)" xml:space="preserve" fill="black" font-family="Arial" font-size="13" font-weight="700" x="115.329" y="0">k</text>
			<text id="dp_text027" transform="matrix(1,3.72492e-015,-3.80828e-015,1,173.979,600.86)" xml:space="preserve" fill="black" font-family="Times New Roman" font-size="13" font-weight="400" x="122.507" y="0">∙</text>
			<text id="dp_text028" transform="matrix(1,3.72492e-015,-3.80828e-015,1,173.979,600.86)" xml:space="preserve" fill="black" font-family="Arial" font-size="13" font-weight="700" x="125.735" y="0">v</text>
			<text id="dp_text029" transform="matrix(1,3.72492e-015,-3.80828e-015,1,173.979,600.86)" xml:space="preserve" fill="black" font-family="Arial" font-size="13" font-weight="400" x="132.913" y="0">)</text>
			<text id="dp_text030" transform="matrix(1,3.72492e-015,-3.80828e-015,1,173.979,600.86)" xml:space="preserve" fill="black" font-family="Arial" font-size="13" font-weight="700" x="137.207" y="0"> </text>
		</g>
		<g id="dp_group096">
			<g id="dp_group097">
				<text id="dp_text031" transform="matrix(1,4.44656e-015,-4.44667e-015,1,185.524,568.125)" xml:space="preserve" fill="black" font-family="Arial" font-size="13" font-weight="700" x="0" y="0">v </text>
				<path id="dp_path099" fill="none" fill-rule="evenodd" stroke="black" stroke-width="0.666667" d="M 192.103,566.605 L 192.103,571.789"/>
				<path id="dp_path100" fill="none" fill-rule="evenodd" stroke="black" stroke-width="0.666667" d="M 193.8,566.605 L 193.8,571.789"/>
			</g>
			<text id="dp_text032" transform="matrix(1,4.52982e-015,-4.6132e-015,1,165.766,568.36)" xml:space="preserve" fill="black" font-family="Arial" font-size="13" font-weight="700" x="0" y="0">v </text>
			<text id="dp_text033" transform="matrix(1,4.52982e-015,-4.6132e-015,1,165.766,568.36)" xml:space="preserve" fill="black" font-family="Arial" font-size="13" font-weight="400" x="10.7507" y="0">=</text>
			<text id="dp_text034" transform="matrix(1,4.52982e-015,-4.6132e-015,1,165.766,568.36)" xml:space="preserve" fill="black" font-family="Arial" font-size="13" font-weight="700" x="18.272" y="0"> </text>
			<text id="dp_text035" transform="matrix(1,4.28003e-015,-4.52993e-015,1,195.882,568.36)" xml:space="preserve" fill="black" font-family="Arial" font-size="13" font-weight="400" x="0" y="0">+</text>
			<text id="dp_text036" transform="matrix(1,4.28003e-015,-4.52993e-015,1,195.882,568.36)" xml:space="preserve" fill="black" font-family="Arial" font-size="13" font-weight="400" x="7.52133" y="0"> </text>
			<g id="dp_group106">
				<text id="dp_text037" transform="matrix(1,3.66941e-015,-3.86379e-015,1,205.705,568.125)" xml:space="preserve" fill="black" font-family="Arial" font-size="13" font-weight="700" x="0" y="0">v </text>
				<path id="dp_path108" fill="none" fill-rule="evenodd" stroke="black" stroke-width="0.666667" d="M 212.283,566.604 L 212.283,571.788"/>
				<path id="dp_path109" fill="none" fill-rule="evenodd" stroke="black" stroke-width="0.666667" d="M 209.692,571.788 L 214.876,571.788"/>
			</g>
		</g>
		<g id="dp_group110">
			<g id="dp_group111">
				<path id="dp_path112" fill="black" fill-rule="evenodd" d="M 448.879,864.515 L 448.22,864.405 L 446.905,864.189 L 448.008,867.749 L 450.195,864.731 Z "/>
				<path id="dp_path113" fill="black" fill-rule="evenodd" d="M 475.833,696.757 L 476.492,696.867 L 477.807,697.083 L 476.704,693.523 L 474.517,696.541 Z "/>
				<path id="dp_path114" fill="black" d="M 448.879,864.515 L 449.269,862.147 L 448.611,862.037 L 448.22,864.405 Z M 449.66,859.779 L 450.051,857.411 L 449.392,857.301 L 449.001,859.669 Z M 450.441,855.043 L 450.832,852.675 L 450.173,852.565 L 449.783,854.933 Z M 451.223,850.307 L 451.612,847.939 L 450.953,847.829 L 450.564,850.197 Z M 452.003,845.571 L 452.392,843.203 L 451.733,843.093 L 451.344,845.461 Z M 452.783,840.835 L 453.172,838.467 L 452.513,838.357 L 452.124,840.725 Z M 453.561,836.099 L 453.952,833.731 L 453.293,833.621 L 452.903,835.989 Z M 454.341,831.363 L 454.732,828.995 L 454.073,828.885 L 453.683,831.253 Z M 455.121,826.627 L 455.512,824.259 L 454.853,824.149 L 454.463,826.517 Z M 455.901,821.891 L 456.292,819.523 L 455.633,819.413 L 455.243,821.781 Z M 456.681,817.155 L 457.072,814.787 L 456.413,814.677 L 456.023,817.045 Z M 457.461,812.419 L 457.852,810.051 L 457.193,809.941 L 456.803,812.309 Z M 458.241,807.683 L 458.632,805.315 L 457.973,805.205 L 457.583,807.573 Z M 459.021,802.947 L 459.412,800.579 L 458.753,800.469 L 458.363,802.837 Z M 459.801,798.211 L 460.192,795.843 L 459.533,795.733 L 459.143,798.101 Z M 460.581,793.475 L 460.972,791.107 L 460.313,790.997 L 459.923,793.365 Z M 461.361,788.739 L 461.752,786.371 L 461.093,786.261 L 460.703,788.629 Z M 462.141,784.003 L 462.532,781.635 L 461.873,781.525 L 461.483,783.893 Z M 462.921,779.267 L 463.312,776.899 L 462.653,776.789 L 462.263,779.157 Z M 463.701,774.531 L 464.092,772.163 L 463.433,772.053 L 463.043,774.421 Z M 464.481,769.795 L 464.872,767.427 L 464.213,767.317 L 463.823,769.685 Z M 465.261,765.059 L 465.652,762.691 L 464.993,762.581 L 464.603,764.949 Z M 466.041,760.323 L 466.432,757.955 L 465.773,757.845 L 465.383,760.213 Z M 466.821,755.587 L 467.212,753.219 L 466.553,753.109 L 466.163,755.477 Z M 467.601,750.851 L 467.992,748.483 L 467.333,748.373 L 466.943,750.741 Z M 468.381,746.115 L 468.771,743.747 L 468.112,743.637 L 467.723,746.005 Z M 469.161,741.379 L 469.551,739.011 L 468.892,738.901 L 468.503,741.269 Z M 469.941,736.643 L 470.331,734.275 L 469.672,734.165 L 469.283,736.533 Z M 470.721,731.907 L 471.111,729.539 L 470.452,729.429 L 470.063,731.797 Z M 471.501,727.171 L 471.891,724.803 L 471.232,724.693 L 470.843,727.061 Z M 472.281,722.435 L 472.671,720.067 L 472.012,719.957 L 471.623,722.325 Z M 473.061,717.699 L 473.451,715.331 L 472.792,715.221 L 472.403,717.589 Z M 473.841,712.963 L 474.231,710.595 L 473.572,710.485 L 473.183,712.853 Z M 474.621,708.227 L 475.011,705.859 L 474.352,705.749 L 473.963,708.117 Z M 475.401,703.491 L 475.791,701.123 L 475.132,701.013 L 474.743,703.381 Z M 476.181,698.755 L 476.492,696.867 L 475.833,696.757 L 475.523,698.645 Z "/>
			</g>
		</g>
		<text id="dp_text038" transform="matrix(1,3.72492e-015,-3.80828e-015,1,465.995,788.48)" xml:space="preserve" fill="black" font-family="Arial" font-size="13" font-weight="700" x="0" y="0">k</text>
		<text id="dp_text039" transform="matrix(1,3.72492e-015,-3.80828e-015,1,465.995,788.48)" xml:space="preserve" fill="black" font-family="Times New Roman" font-size="13" font-weight="400" x="7.17733" y="0">∙</text>
		<text id="dp_text040" transform="matrix(1,3.72492e-015,-3.80828e-015,1,465.995,788.48)" xml:space="preserve" fill="black" font-family="Arial" font-size="13" font-weight="700" x="10.4053" y="0">v</text>
		<text id="dp_text041" transform="matrix(1,3.72492e-015,-3.80828e-015,1,465.995,788.48)" xml:space="preserve" fill="black" font-family="Arial" font-size="13" font-weight="700" x="17.584" y="0"> </text>
		<path id="dp_path119" fill="#cb0707" fill-rule="evenodd" fill-opacity="0.501961" stroke="none" stroke-width="1.33333" d="M 422.407,590.081 L 394.421,765.348 L 273.951,813.545 Z "/>
		<path id="dp_path120" fill="none" fill-rule="evenodd" stroke="black" stroke-width="0.666667" stroke-dasharray="2.4,2.4,2.4,2.4" d="M 362.008,841.083 L 390.704,666.856"/>
		<g id="dp_group121">
			<g id="dp_group122">
				<path id="dp_path123" fill="#cb0707" fill-rule="evenodd" d="M 362.393,678.801 L 364.059,679.909 L 367.389,682.125 L 368.764,671.029 L 359.063,676.587 Z "/>
				<path id="dp_path124" fill="#cb0707" d="M 274.784,814.096 L 364.059,679.909 L 362.395,678.803 L 273.12,812.989 Z "/>
			</g>
		</g>
		<path id="dp_path125" fill="none" fill-rule="evenodd" stroke="#cb0707" stroke-width="2" d="M 352.072,696.123 L 422.015,590.991"/>
		<path id="dp_path126" fill="#e86d08" fill-rule="evenodd" fill-opacity="0.501961" stroke="none" stroke-width="0.666667" d="M 391.164,665.896 L 444.148,683.573 C 456.8,652.612 446.992,619.204 422.044,590.991 Z "/>
		<text id="dp_text042" transform="matrix(1,8.74302e-016,-8.81239e-016,1,449.015,689.979)" xml:space="preserve" fill="black" font-family="Arial" font-size="18" font-weight="700" x="0" y="0">v </text>
		<g id="dp_group128">
			<g id="dp_group129">
				<path id="dp_path130" fill="black" d="M 408.933,658.139 L 403.989,670.023 L 391.199,665.953 L 396.143,654.069 L 408.933,658.139 L 409.827,657.725 L 395.764,653.251 L 390.305,666.367 L 404.368,670.841 L 409.827,657.725 Z "/>
			</g>
		</g>
		<path id="dp_path131" fill="none" fill-rule="evenodd" stroke="black" stroke-width="0.666667" d="M 390.705,666.273 L 422.405,590.081"/>
		<path id="dp_path132" fill="none" fill-rule="evenodd" stroke="black" stroke-width="0.666667" d="M 444.188,683.316 L 389.617,665.896"/>
		<g id="dp_group133">
			<text id="dp_text043" transform="matrix(0.385745,-0.922606,0.922605,0.385745,381.476,829.841)" xml:space="preserve" fill="black" font-family="Arial" font-size="12" font-weight="700" x="0" y="0">k</text>
			<text id="dp_text044" transform="matrix(0.385745,-0.922606,0.922605,0.385745,381.476,829.841)" xml:space="preserve" fill="black" font-family="Arial" font-size="12" font-weight="400" x="6.82267" y="0">×</text>
			<text id="dp_text045" transform="matrix(0.385745,-0.922606,0.922605,0.385745,381.476,829.841)" xml:space="preserve" fill="black" font-family="Arial" font-size="12" font-weight="700" x="13.9707" y="0">v </text>
			<text id="dp_text046" transform="matrix(0.385745,-0.922606,0.922605,0.385745,381.476,829.841)" xml:space="preserve" fill="black" font-family="Arial" font-size="12" font-weight="400" x="24.188" y="0">sin</text>
			<text id="dp_text047" transform="matrix(0.385745,-0.922606,0.922605,0.385745,381.476,829.841)" xml:space="preserve" fill="black" font-family="Arial" font-size="12" font-weight="700" x="39.86" y="0"> </text>
			<path id="dp_path139" fill="black" fill-rule="evenodd" d="M 398.237,792.797 C 398.375,792.451 398.403,792.055 398.321,791.611 C 398.247,791.183 398.089,790.739 397.852,790.28 C 397.347,789.335 396.669,788.484 395.821,787.723 C 395.401,787.352 394.976,787.035 394.545,786.772 C 394.109,786.52 393.695,786.348 393.3,786.259 C 392.908,786.16 392.56,786.161 392.261,786.257 C 391.963,786.364 391.741,786.588 391.599,786.931 C 391.459,787.267 391.425,787.648 391.5,788.077 C 391.58,788.509 391.737,788.96 391.976,789.427 C 392.484,790.395 393.167,791.259 394.027,792.016 C 394.879,792.768 395.712,793.247 396.525,793.447 C 396.919,793.536 397.265,793.531 397.56,793.432 C 397.865,793.339 398.091,793.128 398.237,792.797 Z M 395.375,788.823 L 395.956,789.336 C 396.705,789.999 397.269,790.607 397.645,791.16 C 398.036,791.737 398.155,792.216 398.005,792.592 C 397.849,792.944 397.507,793.001 396.976,792.761 C 396.457,792.548 395.824,792.109 395.072,791.447 L 394.491,790.935 Z M 394.123,790.607 L 393.42,789.987 C 392.883,789.513 392.449,789.016 392.125,788.499 C 391.969,788.239 391.86,787.992 391.8,787.756 C 391.744,787.527 391.755,787.32 391.831,787.137 C 391.913,786.94 392.037,786.825 392.203,786.791 C 392.376,786.761 392.576,786.788 392.807,786.869 C 393.267,787.065 393.765,787.4 394.301,787.876 L 395.004,788.496 Z "/>
		</g>
		<g id="dp_group140">
			<text id="dp_text048" transform="matrix(0.385745,-0.922606,0.922605,0.385745,464.889,668.961)" xml:space="preserve" fill="black" font-family="Arial" font-size="12" font-weight="700" x="0" y="0">k</text>
			<text id="dp_text049" transform="matrix(0.385745,-0.922606,0.922605,0.385745,464.889,668.961)" xml:space="preserve" fill="black" font-family="Arial" font-size="12" font-weight="400" x="6.82267" y="0">×</text>
			<text id="dp_text050" transform="matrix(0.385745,-0.922606,0.922605,0.385745,464.889,668.961)" xml:space="preserve" fill="black" font-family="Arial" font-size="12" font-weight="700" x="13.9707" y="0">v </text>
			<text id="dp_text051" transform="matrix(0.385745,-0.922606,0.922605,0.385745,464.889,668.961)" xml:space="preserve" fill="black" font-family="Arial" font-size="12" font-weight="400" x="24.188" y="0">sin</text>
			<text id="dp_text052" transform="matrix(0.385745,-0.922606,0.922605,0.385745,464.889,668.961)" xml:space="preserve" fill="black" font-family="Arial" font-size="12" font-weight="700" x="39.86" y="0"> </text>
			<path id="dp_path146" fill="black" fill-rule="evenodd" d="M 481.651,631.917 C 481.788,631.571 481.816,631.175 481.735,630.731 C 481.66,630.303 481.503,629.859 481.265,629.4 C 480.76,628.455 480.083,627.604 479.235,626.843 C 478.815,626.472 478.389,626.155 477.959,625.892 C 477.523,625.64 477.108,625.468 476.713,625.379 C 476.321,625.28 475.973,625.281 475.675,625.377 C 475.376,625.484 475.155,625.708 475.012,626.051 C 474.872,626.387 474.839,626.768 474.913,627.197 C 474.993,627.629 475.151,628.08 475.389,628.547 C 475.897,629.515 476.58,630.379 477.44,631.136 C 478.292,631.888 479.125,632.367 479.939,632.567 C 480.332,632.656 480.679,632.651 480.973,632.552 C 481.279,632.459 481.504,632.248 481.651,631.917 Z M 478.788,627.943 L 479.369,628.456 C 480.119,629.119 480.683,629.727 481.059,630.28 C 481.449,630.857 481.568,631.336 481.419,631.712 C 481.263,632.064 480.92,632.121 480.389,631.881 C 479.871,631.668 479.237,631.229 478.485,630.567 L 477.904,630.055 Z M 477.536,629.727 L 476.833,629.107 C 476.296,628.633 475.863,628.136 475.539,627.619 C 475.383,627.359 475.273,627.112 475.213,626.876 C 475.157,626.647 475.168,626.44 475.244,626.257 C 475.327,626.06 475.451,625.945 475.616,625.911 C 475.789,625.881 475.989,625.908 476.22,625.989 C 476.68,626.185 477.179,626.52 477.715,626.996 L 478.417,627.616 Z "/>
		</g>
		<g id="dp_group147">
			<text id="dp_text053" transform="matrix(0.960537,0.278153,-0.278153,0.960537,409.383,580.801)" xml:space="preserve" fill="black" font-family="Arial" font-size="12" font-weight="700" x="0" y="0">k</text>
			<text id="dp_text054" transform="matrix(0.960537,0.278153,-0.278153,0.960537,409.383,580.801)" xml:space="preserve" fill="black" font-family="Arial" font-size="12" font-weight="400" x="6.82" y="0">×(</text>
			<text id="dp_text055" transform="matrix(0.960537,0.278153,-0.278153,0.960537,409.383,580.801)" xml:space="preserve" fill="black" font-family="Arial" font-size="12" font-weight="700" x="18.048" y="0">k</text>
			<text id="dp_text056" transform="matrix(0.960537,0.278153,-0.278153,0.960537,409.383,580.801)" xml:space="preserve" fill="black" font-family="Arial" font-size="12" font-weight="400" x="24.868" y="0">×</text>
			<text id="dp_text057" transform="matrix(0.960537,0.278153,-0.278153,0.960537,409.383,580.801)" xml:space="preserve" fill="black" font-family="Arial" font-size="12" font-weight="700" x="32.016" y="0">v</text>
			<text id="dp_text058" transform="matrix(0.960537,0.278153,-0.278153,0.960537,409.383,580.801)" xml:space="preserve" fill="black" font-family="Arial" font-size="12" font-weight="400" x="38.8373" y="0">)(1</text>
			<text id="dp_text059" transform="matrix(0.960537,0.278153,-0.278153,0.960537,409.383,580.801)" xml:space="preserve" fill="black" font-family="Arial" font-size="12" font-weight="400" x="53.82" y="0">−</text>
			<text id="dp_text060" transform="matrix(0.960537,0.278153,-0.278153,0.960537,409.383,580.801)" xml:space="preserve" fill="black" font-family="Arial" font-size="12" font-weight="400" x="60.968" y="0">cos  </text>
			<text id="dp_text061" transform="matrix(0.960537,0.278153,-0.278153,0.960537,409.383,580.801)" xml:space="preserve" fill="black" font-family="Arial" font-size="12" font-weight="400" x="86.8493" y="0">)</text>
			<text id="dp_text062" transform="matrix(0.960537,0.278153,-0.278153,0.960537,409.383,580.801)" xml:space="preserve" fill="black" font-family="Arial" font-size="12" font-weight="700" x="90.9293" y="0"> </text>
			<path id="dp_path158" fill="black" fill-rule="evenodd" d="M 488.073,604.296 C 488.433,604.393 488.831,604.375 489.261,604.244 C 489.679,604.121 490.101,603.913 490.531,603.625 C 491.412,603.016 492.18,602.247 492.84,601.317 C 493.16,600.857 493.427,600.399 493.639,599.941 C 493.84,599.48 493.963,599.048 494.007,598.645 C 494.06,598.244 494.02,597.9 493.891,597.613 C 493.749,597.329 493.501,597.135 493.145,597.032 C 492.796,596.931 492.413,596.943 491.995,597.065 C 491.576,597.193 491.145,597.401 490.709,597.691 C 489.805,598.305 489.025,599.083 488.369,600.024 C 487.72,600.955 487.34,601.837 487.232,602.669 C 487.189,603.071 487.235,603.413 487.367,603.696 C 487.493,603.988 487.728,604.188 488.073,604.296 Z M 491.696,600.999 L 491.252,601.635 C 490.68,602.455 490.139,603.084 489.632,603.521 C 489.103,603.975 488.641,604.148 488.251,604.043 C 487.884,603.928 487.787,603.593 487.965,603.039 C 488.119,602.5 488.481,601.819 489.055,600.997 L 489.497,600.361 Z M 489.781,599.957 L 490.317,599.189 C 490.727,598.603 491.171,598.115 491.648,597.735 C 491.888,597.549 492.121,597.413 492.349,597.325 C 492.571,597.244 492.777,597.231 492.968,597.285 C 493.173,597.347 493.3,597.456 493.353,597.616 C 493.403,597.784 493.399,597.987 493.345,598.224 C 493.201,598.704 492.927,599.237 492.515,599.825 L 491.979,600.593 Z "/>
		</g>
		<path id="dp_path159" fill="#e86d08" fill-rule="evenodd" fill-opacity="0.501961" stroke="none" stroke-width="0.666667" d="M 273.881,814.373 L 336.18,834.143 C 341.704,820.473 337.608,805.415 326.717,792.96 Z "/>
		<path id="dp_path160" fill="black" fill-rule="evenodd" d="M 321.188,819.743 C 321.725,819.732 322.265,819.549 322.807,819.196 C 323.332,818.86 323.833,818.405 324.311,817.837 C 325.284,816.645 326.036,815.276 326.573,813.731 C 326.832,812.967 327.016,812.228 327.127,811.511 C 327.219,810.796 327.217,810.149 327.116,809.577 C 327.029,809.004 326.836,808.544 326.543,808.203 C 326.236,807.863 325.816,807.696 325.284,807.696 C 324.761,807.696 324.236,807.863 323.709,808.203 C 323.183,808.544 322.673,809.004 322.185,809.577 C 321.184,810.787 320.42,812.171 319.891,813.731 C 319.365,815.276 319.195,816.645 319.379,817.837 C 319.477,818.405 319.679,818.86 319.973,819.196 C 320.267,819.549 320.668,819.732 321.188,819.743 Z M 324.868,813.748 L 324.509,814.801 C 324.048,816.164 323.555,817.248 323.031,818.051 C 322.48,818.887 321.913,819.309 321.331,819.323 C 320.779,819.309 320.515,818.887 320.536,818.051 C 320.533,817.248 320.761,816.164 321.224,814.801 L 321.583,813.748 Z M 321.812,813.075 L 322.244,811.803 C 322.573,810.825 322.992,809.979 323.497,809.261 C 323.757,808.912 324.025,808.631 324.301,808.419 C 324.576,808.217 324.855,808.116 325.139,808.116 C 325.445,808.116 325.667,808.217 325.805,808.419 C 325.939,808.631 326.013,808.912 326.035,809.261 C 326.031,809.979 325.861,810.825 325.531,811.803 L 325.096,813.075 Z "/>
		<g id="dp_group161">
			<g id="dp_group162">
				<path id="dp_path163" fill="black" fill-rule="evenodd" d="M 328.949,797.592 L 329.971,796.735 L 332.871,796.041 L 326.46,793.588 L 327.763,800.327 Z "/>
				<path id="dp_path164" fill="black" d="M 336.539,833.104 L 336.669,832.795 L 336.797,832.48 L 336.921,832.169 L 337.043,831.855 L 337.16,831.541 L 337.273,831.228 L 337.384,830.912 L 337.491,830.595 L 337.592,830.283 L 337.693,829.965 L 337.789,829.648 L 337.881,829.332 L 337.971,829.015 L 338.056,828.697 L 338.137,828.379 L 338.216,828.061 L 338.292,827.741 L 338.363,827.423 L 338.431,827.104 L 338.495,826.784 L 338.556,826.464 L 338.613,826.144 L 338.668,825.823 L 338.719,825.503 L 338.767,825.183 L 338.809,824.861 L 338.851,824.541 L 338.887,824.219 L 338.921,823.897 L 338.952,823.576 L 338.979,823.255 L 339.003,822.931 L 339.023,822.608 L 339.04,822.288 L 339.053,821.963 L 339.063,821.641 L 339.069,821.32 L 339.073,820.997 L 339.073,820.675 L 339.071,820.352 L 339.064,820.029 L 339.055,819.708 L 339.043,819.384 L 339.027,819.061 L 339.007,818.739 L 338.984,818.416 L 338.959,818.093 L 338.929,817.771 L 338.897,817.448 L 338.861,817.127 L 338.824,816.804 L 338.781,816.481 L 338.736,816.157 L 338.688,815.836 L 338.637,815.516 L 338.583,815.192 L 338.524,814.871 L 338.463,814.549 L 338.399,814.229 L 338.332,813.908 L 338.261,813.587 L 338.188,813.265 L 338.033,812.625 L 337.865,811.987 L 337.684,811.348 L 337.492,810.711 L 337.288,810.075 L 337.071,809.44 L 336.843,808.807 L 336.603,808.176 L 336.351,807.545 L 336.087,806.917 L 335.812,806.291 L 335.524,805.665 L 335.227,805.044 L 334.916,804.424 L 334.595,803.804 L 334.263,803.189 L 333.919,802.575 L 333.563,801.963 L 333.197,801.355 L 332.82,800.748 L 332.432,800.144 L 332.033,799.543 L 331.624,798.945 L 331.204,798.349 L 330.773,797.759 L 330.324,797.157 L 329.971,796.735 L 328.949,797.591 L 329.279,797.984 L 329.701,798.548 L 330.121,799.125 L 330.531,799.705 L 330.929,800.287 L 331.317,800.872 L 331.695,801.46 L 332.061,802.048 L 332.416,802.64 L 332.761,803.233 L 333.095,803.829 L 333.419,804.428 L 333.729,805.027 L 334.029,805.628 L 334.319,806.231 L 334.596,806.835 L 334.863,807.443 L 335.119,808.049 L 335.363,808.659 L 335.595,809.268 L 335.815,809.88 L 336.024,810.493 L 336.22,811.105 L 336.407,811.721 L 336.58,812.336 L 336.743,812.951 L 336.892,813.569 L 336.963,813.877 L 337.031,814.185 L 337.095,814.493 L 337.156,814.803 L 337.215,815.113 L 337.271,815.421 L 337.323,815.729 L 337.371,816.039 L 337.419,816.349 L 337.461,816.657 L 337.501,816.967 L 337.539,817.276 L 337.572,817.587 L 337.604,817.896 L 337.631,818.205 L 337.656,818.515 L 337.679,818.824 L 337.696,819.133 L 337.712,819.443 L 337.724,819.751 L 337.733,820.061 L 337.74,820.371 L 337.743,820.68 L 337.743,820.989 L 337.739,821.299 L 337.732,821.609 L 337.723,821.917 L 337.709,822.224 L 337.692,822.533 L 337.675,822.843 L 337.651,823.148 L 337.624,823.459 L 337.596,823.767 L 337.564,824.075 L 337.528,824.381 L 337.489,824.688 L 337.447,824.996 L 337.401,825.303 L 337.353,825.609 L 337.301,825.917 L 337.247,826.221 L 337.188,826.528 L 337.127,826.835 L 337.061,827.14 L 336.993,827.445 L 336.923,827.749 L 336.847,828.053 L 336.768,828.359 L 336.685,828.663 L 336.601,828.967 L 336.512,829.269 L 336.421,829.573 L 336.325,829.875 L 336.227,830.179 L 336.125,830.48 L 336.02,830.78 L 335.909,831.083 L 335.797,831.383 L 335.681,831.684 L 335.563,831.984 L 335.44,832.283 L 335.312,832.584 Z "/>
			</g>
		</g>
		<g id="dp_group165">
			<text id="dp_text063" transform="matrix(0.965926,0.258819,-0.258819,0.965926,318.183,841.705)" xml:space="preserve" fill="black" font-family="Arial" font-size="12" font-weight="400" x="0" y="0">cos</text>
			<text id="dp_text064" transform="matrix(0.965926,0.258819,-0.258819,0.965926,318.183,841.705)" xml:space="preserve" fill="black" font-family="Arial" font-size="12" font-weight="400" x="19.108" y="0"> </text>
			<g id="dp_group168">
				<text id="dp_text065" transform="matrix(0.962526,0.257908,-0.258819,0.965926,307.66,838.514)" xml:space="preserve" fill="black" font-family="Arial" font-size="12" font-weight="700" x="0" y="0">v </text>
				<path id="dp_path170" fill="black" fill-rule="evenodd" stroke="black" stroke-width="0.666667" d="M 314.944,838.684 L 313.672,843.432"/>
				<path id="dp_path171" fill="black" fill-rule="evenodd" stroke="black" stroke-width="0.666667" d="M 310.939,842.471 L 316.52,843.965"/>
			</g>
			<path id="dp_path172" fill="black" fill-rule="evenodd" d="M 338.427,848.368 C 338.789,848.456 339.185,848.431 339.615,848.291 C 340.028,848.159 340.447,847.945 340.871,847.647 C 341.739,847.021 342.493,846.237 343.132,845.293 C 343.445,844.827 343.701,844.364 343.904,843.901 C 344.095,843.437 344.209,843.003 344.245,842.599 C 344.289,842.197 344.244,841.855 344.108,841.571 C 343.963,841.287 343.712,841.099 343.352,841.003 C 343.001,840.908 342.617,840.928 342.203,841.06 C 341.785,841.195 341.361,841.412 340.928,841.711 C 340.039,842.344 339.275,843.136 338.639,844.089 C 338.007,845.035 337.645,845.924 337.553,846.76 C 337.517,847.16 337.569,847.501 337.709,847.781 C 337.841,848.072 338.08,848.267 338.427,848.368 Z M 341.983,844.999 L 341.552,845.641 C 340.996,846.475 340.468,847.116 339.971,847.561 C 339.449,848.024 338.993,848.207 338.6,848.109 C 338.231,848.001 338.128,847.671 338.293,847.113 C 338.436,846.569 338.784,845.883 339.341,845.049 L 339.773,844.405 Z M 340.048,843.996 L 340.568,843.216 C 340.967,842.62 341.4,842.127 341.869,841.735 C 342.107,841.544 342.337,841.405 342.561,841.312 C 342.781,841.228 342.989,841.209 343.18,841.261 C 343.384,841.315 343.516,841.424 343.573,841.583 C 343.624,841.751 343.625,841.952 343.575,842.191 C 343.444,842.673 343.177,843.213 342.779,843.808 L 342.257,844.588 Z "/>
		</g>
		<g id="dp_group173">
			<path id="dp_path174" fill="#2a04e8" fill-rule="evenodd" fill-opacity="0.501961" d="M 273.952,813.544 L 280.34,770.141 C 290.605,772.072 299.76,778.569 305.759,788.181"/>
			<g id="dp_group175">
				<g id="dp_group176">
					<path id="dp_path177" fill="black" fill-rule="evenodd" d="M 303.625,783.977 L 302.533,784.743 L 299.584,785.181 L 305.759,788.18 L 305.043,781.355 Z "/>
					<path id="dp_path178" fill="black" d="M 274.612,813.641 L 281,770.239 L 280.34,770.141 L 280.213,770.796 L 280.688,770.888 L 281.157,770.987 L 281.627,771.092 L 282.091,771.203 L 282.556,771.321 L 283.019,771.445 L 283.48,771.577 L 283.939,771.713 L 284.396,771.857 L 284.851,772.005 L 285.303,772.163 L 285.756,772.325 L 286.204,772.492 L 286.649,772.668 L 287.093,772.849 L 287.536,773.035 L 287.976,773.227 L 288.412,773.425 L 288.848,773.631 L 289.281,773.843 L 289.711,774.059 L 290.139,774.28 L 290.564,774.509 L 290.985,774.743 L 291.405,774.984 L 291.821,775.229 L 292.236,775.481 L 292.648,775.739 L 293.056,776.001 L 293.463,776.271 L 293.864,776.544 L 294.264,776.824 L 294.661,777.109 L 295.055,777.4 L 295.444,777.696 L 295.831,777.999 L 296.216,778.305 L 296.597,778.619 L 296.975,778.936 L 297.348,779.26 L 297.72,779.588 L 298.085,779.921 L 298.449,780.261 L 298.811,780.605 L 299.165,780.955 L 299.519,781.309 L 299.869,781.669 L 300.213,782.033 L 300.555,782.403 L 300.893,782.779 L 301.227,783.159 L 301.557,783.543 L 301.883,783.932 L 302.205,784.327 L 302.513,784.715 L 302.535,784.744 L 303.623,783.976 L 303.58,783.915 L 303.243,783.492 L 302.909,783.084 L 302.573,782.681 L 302.232,782.284 L 301.888,781.893 L 301.539,781.507 L 301.187,781.124 L 300.829,780.747 L 300.468,780.376 L 300.104,780.011 L 299.736,779.648 L 299.364,779.293 L 298.989,778.943 L 298.608,778.596 L 298.225,778.257 L 297.839,777.923 L 297.448,777.595 L 297.053,777.271 L 296.657,776.953 L 296.257,776.64 L 295.852,776.333 L 295.445,776.032 L 295.035,775.739 L 294.621,775.448 L 294.204,775.164 L 293.784,774.887 L 293.36,774.613 L 292.935,774.348 L 292.507,774.088 L 292.075,773.832 L 291.639,773.583 L 291.201,773.341 L 290.76,773.104 L 290.316,772.872 L 289.871,772.648 L 289.424,772.431 L 288.972,772.217 L 288.517,772.011 L 288.061,771.811 L 287.603,771.617 L 287.143,771.431 L 286.679,771.249 L 286.212,771.075 L 285.745,770.907 L 285.275,770.744 L 284.801,770.588 L 284.328,770.439 L 283.851,770.297 L 283.373,770.163 L 282.892,770.033 L 282.411,769.909 L 281.925,769.793 L 281.44,769.685 L 280.952,769.581 L 279.783,769.355 L 273.292,813.447 Z "/>
				</g>
			</g>
		</g>
		<g id="dp_group179">
			<g id="dp_group180">
				<path id="dp_path181" fill="black" fill-rule="evenodd" d="M 435.636,688.599 L 436.851,690.187 L 439.281,693.364 L 444.185,683.316 L 433.205,685.421 Z "/>
				<path id="dp_path182" fill="black" d="M 274.56,814.337 L 436.852,690.188 L 435.636,688.599 L 273.344,812.748 Z "/>
			</g>
		</g>
		<text id="dp_text066" transform="matrix(1,8.74302e-016,-8.81239e-016,1,271.974,741.413)" xml:space="preserve" fill="#2a04e8" font-family="Arial" font-size="18" font-weight="700" x="0" y="0">k </text>
		<g id="dp_group184">
			<g id="dp_group185">
				<g id="dp_group186">
					<path id="dp_path187" fill="#e86d08" fill-rule="evenodd" d="M 375.825,807.924 L 377.056,808.436 L 379.519,809.461 L 379.003,802.025 L 373.364,806.899 Z "/>
					<path id="dp_path188" fill="#e86d08" d="M 363.116,841.947 L 377.057,808.436 L 375.825,807.924 L 361.884,841.435 Z "/>
				</g>
			</g>
			<path id="dp_path189" fill="none" fill-rule="evenodd" stroke="#e86d08" stroke-width="1.33333" d="M 374.383,813.131 L 394.2,765.499"/>
		</g>
		<g id="dp_group190">
			<g id="dp_group191">
				<path id="dp_path192" fill="black" d="M 299.591,800.092 L 296.533,820.024 L 274.06,813.839 L 277.117,793.907 L 299.591,800.092 L 300.337,799.607 L 276.573,793.067 L 273.313,814.321 L 297.077,820.864 L 300.337,799.607 Z "/>
			</g>
		</g>
		<g id="dp_group193">
			<g id="dp_group194">
				<g id="dp_group195">
					<path id="dp_path196" fill="#e86d08" fill-rule="evenodd" d="M 313.076,825.287 L 312.684,826.56 L 311.897,829.109 L 319.251,827.888 L 313.863,822.739 Z "/>
					<path id="dp_path197" fill="#e86d08" d="M 273.68,814.527 L 312.684,826.561 L 313.076,825.287 L 274.072,813.252 Z "/>
				</g>
			</g>
			<path id="dp_path198" fill="none" fill-rule="evenodd" stroke="#e86d08" stroke-width="1.33333" d="M 309.303,824.82 L 362.007,841.083"/>
		</g>
		<g id="dp_group199">
			<g id="dp_group200">
				<path id="dp_path201" fill="#2a04e8" fill-rule="evenodd" d="M 282.635,750.415 L 284.612,750.719 L 288.565,751.327 L 285.144,740.683 L 278.681,749.805 Z "/>
				<path id="dp_path202" fill="#2a04e8" d="M 282.636,750.415 L 272.888,813.736 L 274.864,814.04 L 284.612,750.719 Z "/>
			</g>
		</g>
		<text id="dp_text067" transform="matrix(0.960537,0.278153,-0.278153,0.960537,140.909,764.436)" xml:space="preserve" fill="black" font-family="Arial" font-size="12" font-weight="700" x="0" y="0">k</text>
		<text id="dp_text068" transform="matrix(0.960537,0.278153,-0.278153,0.960537,140.909,764.436)" xml:space="preserve" fill="black" font-family="Arial" font-size="12" font-weight="400" x="6.82" y="0">×(</text>
		<text id="dp_text069" transform="matrix(0.960537,0.278153,-0.278153,0.960537,140.909,764.436)" xml:space="preserve" fill="black" font-family="Arial" font-size="12" font-weight="700" x="18.048" y="0">k</text>
		<text id="dp_text070" transform="matrix(0.960537,0.278153,-0.278153,0.960537,140.909,764.436)" xml:space="preserve" fill="black" font-family="Arial" font-size="12" font-weight="400" x="24.868" y="0">×</text>
		<text id="dp_text071" transform="matrix(0.960537,0.278153,-0.278153,0.960537,140.909,764.436)" xml:space="preserve" fill="black" font-family="Arial" font-size="12" font-weight="700" x="32.016" y="0">v</text>
		<text id="dp_text072" transform="matrix(0.960537,0.278153,-0.278153,0.960537,140.909,764.436)" xml:space="preserve" fill="black" font-family="Arial" font-size="12" font-weight="400" x="38.8373" y="0">)</text>
		<text id="dp_text073" transform="matrix(0.960537,0.278153,-0.278153,0.960537,140.909,764.436)" xml:space="preserve" fill="black" font-family="Arial" font-size="12" font-weight="700" x="42.9173" y="0"> </text>
		<text id="dp_text074" transform="matrix(0.385745,-0.922606,0.922605,0.385745,319.793,708.504)" xml:space="preserve" fill="black" font-family="Arial" font-size="12" font-weight="700" x="0" y="0">k</text>
		<text id="dp_text075" transform="matrix(0.385745,-0.922606,0.922605,0.385745,319.793,708.504)" xml:space="preserve" fill="black" font-family="Arial" font-size="12" font-weight="400" x="6.82267" y="0">×</text>
		<text id="dp_text076" transform="matrix(0.385745,-0.922606,0.922605,0.385745,319.793,708.504)" xml:space="preserve" fill="black" font-family="Arial" font-size="12" font-weight="700" x="13.9707" y="0">v </text>
		<g id="dp_group213">
			<text id="dp_text077" transform="matrix(1,8.74302e-016,-8.81239e-016,1,338.331,664.044)" xml:space="preserve" fill="#cb0707" font-family="Arial" font-size="18" font-weight="700" x="0" y="0">v </text>
			<text id="dp_text078" transform="matrix(1,8.74302e-016,-8.81239e-016,1,348.179,668.077)" xml:space="preserve" fill="#cb0707" font-family="Arial" font-size="12" font-weight="400" x="0" y="0">rot </text>
		</g>
		<g id="dp_group216">
			<text id="dp_text079" transform="matrix(1,2.55351e-015,-2.7478e-015,1,409.025,689.273)" xml:space="preserve" fill="black" font-family="Arial" font-size="13" font-weight="700" x="0" y="0">v </text>
			<path id="dp_path218" fill="black" fill-rule="evenodd" stroke="black" stroke-width="0.666667" d="M 416.505,687.224 L 416.505,692.416"/>
			<path id="dp_path219" fill="black" fill-rule="evenodd" stroke="black" stroke-width="0.666667" d="M 414.848,687.221 L 414.848,692.415"/>
			<text id="dp_text080" transform="matrix(1,2.498e-015,-2.80331e-015,1,418.072,692.241)" xml:space="preserve" fill="black" font-family="Arial" font-size="9" font-weight="400" x="0" y="0">rot </text>
		</g>
		<g id="dp_group221">
			<text id="dp_text081" transform="matrix(0.996398,8.71159e-016,-8.81232e-016,1,399.003,766.548)" xml:space="preserve" fill="#cb0707" font-family="Arial" font-size="12" font-weight="700" x="0" y="0">v </text>
			<path id="dp_path223" fill="#cb0707" fill-rule="evenodd" stroke="#cb0707" stroke-width="0.666667" d="M 406.177,764.805 L 406.177,769.785"/>
			<path id="dp_path224" fill="#cb0707" fill-rule="evenodd" stroke="#cb0707" stroke-width="0.666667" d="M 403.251,769.56 L 409.105,769.56"/>
			<text id="dp_text082" transform="matrix(1,8.74309e-016,-8.81232e-016,1,409.478,769.394)" xml:space="preserve" fill="#cb0707" font-family="Arial" font-size="9" font-weight="400" x="0" y="0">rot </text>
		</g>
		<g id="dp_group226">
			<text id="dp_text083" transform="matrix(0.996398,8.71159e-016,-8.81232e-016,1,420.955,863.096)" xml:space="preserve" fill="black" font-family="Arial" font-size="12" font-weight="700" x="0" y="0">v </text>
			<path id="dp_path228" fill="none" fill-rule="evenodd" stroke="black" stroke-width="0.666667" d="M 428.129,861.352 L 428.129,866.332"/>
			<path id="dp_path229" fill="none" fill-rule="evenodd" stroke="black" stroke-width="0.666667" d="M 425.201,866.108 L 431.056,866.108"/>
		</g>
		<g id="dp_group230">
			<g id="dp_group231">
				<path id="dp_path232" fill="black" fill-rule="evenodd" d="M 472.715,613.684 L 473.945,614.196 L 476.408,615.221 L 475.892,607.785 L 470.253,612.659 Z "/>
				<path id="dp_path233" fill="black" d="M 444.808,684.233 L 473.947,614.196 L 472.715,613.684 L 443.576,683.721 Z "/>
			</g>
		</g>
		<g id="dp_group234">
			<g id="dp_group235">
				<path id="dp_path236" fill="black" fill-rule="evenodd" d="M 427.468,593.027 L 427.873,591.756 L 428.684,589.216 L 421.32,590.364 L 426.657,595.567 Z "/>
				<path id="dp_path237" fill="black" d="M 476.093,607.149 L 427.873,591.756 L 427.468,593.025 L 475.688,608.419 Z "/>
			</g>
		</g>
	</g>
</svg>