<?xml version="1.0" encoding="UTF-8" standalone="no"?>
<svg
   xmlns:dc="http://purl.org/dc/elements/1.1/"
   xmlns:cc="http://creativecommons.org/ns#"
   xmlns:rdf="http://www.w3.org/1999/02/22-rdf-syntax-ns#"
   xmlns:svg="http://www.w3.org/2000/svg"
   xmlns="http://www.w3.org/2000/svg"
   xmlns:sodipodi="http://sodipodi.sourceforge.net/DTD/sodipodi-0.dtd"
   xmlns:inkscape="http://www.inkscape.org/namespaces/inkscape"
   version="1.1"
   x="0px"
   y="0px"
   viewBox="0 0 180 180"
   style="enable-background:new 0 0 180 180;"
   xml:space="preserve"
   id="svg2"
   inkscape:version="0.91 r13725"
   sodipodi:docname="Traslazione_OK.svg"><metadata
     id="metadata28"><rdf:RDF><cc:Work
         rdf:about=""><dc:format>image/svg+xml</dc:format><dc:type
           rdf:resource="http://purl.org/dc/dcmitype/StillImage" /><dc:title></dc:title></cc:Work></rdf:RDF></metadata><defs
     id="defs26" /><sodipodi:namedview
     pagecolor="#ffffff"
     bordercolor="#666666"
     borderopacity="1"
     objecttolerance="10"
     gridtolerance="10"
     guidetolerance="10"
     inkscape:pageopacity="1"
     inkscape:pageshadow="2"
     inkscape:window-width="1353"
     inkscape:window-height="1062"
     id="namedview24"
     showgrid="false"
     inkscape:zoom="3.7083822"
     inkscape:cx="90"
     inkscape:cy="90"
     inkscape:window-x="0"
     inkscape:window-y="0"
     inkscape:window-maximized="0"
     inkscape:current-layer="svg2" /><style
     type="text/css"
     id="style4">
	.st0{fill:#009FE3;}
	.st1{fill:#E30613;}
	.st2{fill:none;stroke:#E30613;stroke-width:4;}
</style><path
     style="fill:#009fe3"
     inkscape:connector-curvature="0"
     d="M 100,82.1 C 79.3,77.1 63.9,57.5 62.9,36.3 62.2,27.9 61.6,18.2 68.4,11.9 73.8,5 82.8,1.9 91.4,3.3 c 10.3,0.6 19.5,9.3 21.7,19.2 2.4,9.3 -3,17.7 -3.9,26.5 0.8,12.4 17.1,11.3 20.8,0.2 4,-10 20.3,-9.5 23.7,0.7 4.1,10.2 -5.9,19 -13.2,24.5 -11.5,8.1 -26.7,11.3 -40.5,7.7 z"
     class="st0"
     id="path1311" /><path
     style="fill:#e30613"
     inkscape:connector-curvature="0"
     d="M 38.6,154.1 C 17.9,149.1 2.5,129.5 1.5,108.3 0.8,99.9 0.3,90.2 7,83.9 c 5.4,-6.9 14.4,-10 23,-8.6 10.3,0.6 19.5,9.3 21.7,19.2 2.4,9.3 -3,17.7 -3.9,26.5 0.8,12.4 17.6,12.4 20.8,0.2 4,-10 20.3,-9.5 23.7,0.7 4.1,10.2 -5.9,19 -13.2,24.5 -11.6,8 -26.8,11.3 -40.5,7.7 z"
     class="st1"
     id="path1308" /><g
     style="fill:#000000;fill-opacity:1;stroke:#000000;stroke-opacity:1"
     id="g12"
     transform="matrix(0.91390186,0,0,0.91698059,8.6211782,-1.8544088)"><line
       class="st2"
       x1="104.2"
       y1="168.60001"
       x2="163.5"
       y2="101.6"
       id="line14"
       style="fill:#000000;fill-opacity:1;stroke:#000000;stroke-width:4;stroke-opacity:1" /><g
       style="fill:#000000;fill-opacity:1;stroke:#000000;stroke-opacity:1"
       id="g16"><circle
         class="st1"
         cx="104.5"
         cy="168.3"
         r="7.5"
         id="circle18"
         style="fill:#000000;fill-opacity:1;stroke:#000000;stroke-opacity:1" /></g><g
       style="fill:#000000;fill-opacity:1;stroke:#000000;stroke-opacity:1"
       id="g20"><polygon
         class="st1"
         points="175.3,88.1 166.2,115.2 161,104.3 149.6,100.5 "
         id="polygon22"
         style="fill:#000000;fill-opacity:1;stroke:#000000;stroke-opacity:1" /></g></g></svg>